<svg width="24" height="24" viewBox="0 0 24 24" fill="none" xmlns="http://www.w3.org/2000/svg">
<path d="M2.25 15.75V2.25H0V0H3.375C3.99633 0 4.5 0.503685 4.5 1.125V14.625H18.4932L20.7432 5.625H6.75V3.375H22.1841C22.8055 3.375 23.3091 3.87868 23.3091 4.5C23.3091 4.59198 23.2979 4.68362 23.2755 4.77286L20.463 16.0228C20.3379 16.5237 19.8879 16.875 19.3716 16.875H3.375C2.75368 16.875 2.25 16.3713 2.25 15.75ZM4.5 23.625C3.25736 23.625 2.25 22.6177 2.25 21.375C2.25 20.1323 3.25736 19.125 4.5 19.125C5.74264 19.125 6.75 20.1323 6.75 21.375C6.75 22.6177 5.74264 23.625 4.5 23.625ZM18 23.625C16.7573 23.625 15.75 22.6177 15.75 21.375C15.75 20.1323 16.7573 19.125 18 19.125C19.2427 19.125 20.25 20.1323 20.25 21.375C20.25 22.6177 19.2427 23.625 18 23.625Z" fill="black"/>
</svg>
