<svg width="390" height="406" viewBox="0 0 390 406" fill="none" xmlns="http://www.w3.org/2000/svg">
<g clip-path="url(#clip0_0_2623)">
<path d="M435 360.34H-65V360.59H435V360.34Z" fill="#EBEBEB"/>
<path d="M384.9 376.44H351.78V376.69H384.9V376.44Z" fill="#EBEBEB"/>
<path d="M208.22 373.3H195.33V373.55H208.22V373.3Z" fill="#EBEBEB"/>
<path d="M284.67 374.36H257.53V374.61H284.67V374.36Z" fill="#EBEBEB"/>
<path d="M350.78 367.15H294.67V367.4H350.78V367.15Z" fill="#EBEBEB"/>
<path d="M13.99 378.72H-12.54V378.97H13.99V378.72Z" fill="#EBEBEB"/>
<path d="M45.89 378.72H22.89V378.97H45.89V378.72Z" fill="#EBEBEB"/>
<path d="M126.81 373.18H66V373.43H126.81V373.18Z" fill="#EBEBEB"/>
<path d="M172.01 315.74H-21.09C-24.24 315.74 -26.8 313.18 -26.8 310.03V38.6C-26.8 35.45 -24.24 32.89 -21.09 32.89H172.01C175.16 32.89 177.72 35.45 177.72 38.6V310.03C177.72 313.18 175.16 315.74 172.01 315.74ZM-21.09 33.14C-24.1 33.14 -26.55 35.59 -26.55 38.6V310.03C-26.55 313.04 -24.1 315.49 -21.09 315.49H172.01C175.02 315.49 177.47 313.04 177.47 310.03V38.6C177.47 35.59 175.02 33.14 172.01 33.14H-21.09Z" fill="#EBEBEB"/>
<path d="M388.31 315.74H195.21C192.06 315.74 189.5 313.18 189.5 310.03V38.6C189.5 35.45 192.06 32.89 195.21 32.89H388.31C391.46 32.89 394.02 35.45 394.02 38.6V310.03C394.02 313.18 391.46 315.74 388.31 315.74ZM195.21 33.14C192.2 33.14 189.75 35.59 189.75 38.6V310.03C189.75 313.04 192.2 315.49 195.21 315.49H388.31C391.32 315.49 393.77 313.04 393.77 310.03V38.6C393.77 35.59 391.32 33.14 388.31 33.14H195.21Z" fill="#EBEBEB"/>
<path d="M402.06 172.11C405.31 160.83 404.72 149.35 401.07 139.07C403.92 134.99 406.17 130.38 407.63 125.33C414.33 102.11 402.12 77.93 380.09 69.22C375.84 38.8 354.25 12.22 322.84 3.16001C298 -3.99998 272.53 1.38001 253.17 15.55C248.32 10.48 242.12 6.57001 234.9 4.49001C213.12 -1.78999 190.37 10.77 184.09 32.55C183.04 36.19 182.53 39.86 182.49 43.48C160.57 47.9 141.8 64.05 135.18 87.02C129.23 107.65 134.5 128.86 147.37 144.13C145.71 147.14 144.34 150.37 143.35 153.81C136.22 178.54 150.48 204.36 175.21 211.49C183.36 213.84 191.63 213.85 199.31 211.95C208.4 224.48 221.57 234.2 237.59 238.82C258.22 244.77 279.33 241.07 296.13 230.41C303.65 247.9 309.83 274.14 296.53 299.87C344.87 295.13 379.79 248.76 372.67 206.27C386.47 199.92 397.53 187.85 402.07 172.11H402.06Z" fill="#EBEBEB"/>
<path d="M309.32 290.27C309.06 290.27 308.8 290.17 308.61 289.98C308.35 289.72 308.25 289.35 308.35 288.99C315.16 265.27 308.95 242.53 302.55 227.63L299.3 220.08L292.36 224.48C281.89 231.13 269.84 234.64 257.53 234.64C251.46 234.64 245.4 233.78 239.51 232.08C225.48 228.03 213.53 219.64 204.95 207.82L202.18 204L197.6 205.14C190.88 206.81 183.81 206.68 177.12 204.75C166.96 201.82 158.55 195.11 153.43 185.85C148.32 176.59 147.12 165.9 150.05 155.73C150.87 152.89 152.02 150.12 153.47 147.5L155.8 143.28L152.69 139.6C140.83 125.53 136.78 106.59 141.87 88.94C147.57 69.19 163.65 54.39 183.84 50.32L189.39 49.2L189.45 43.54C189.48 40.46 189.93 37.41 190.78 34.47C194.96 19.97 208.41 9.85001 223.47 9.85001C226.65 9.85001 229.83 10.3 232.92 11.19C238.69 12.86 243.93 16.03 248.07 20.36L252.31 24.8L257.26 21.18C269.78 12.02 285.15 6.98001 300.54 6.98001C307.38 6.98001 314.21 7.95001 320.85 9.87001C348.6 17.87 369.11 41.54 373.11 70.17L373.67 74.21L377.47 75.71C396.47 83.22 406.53 103.71 400.86 123.37C399.65 127.55 397.78 131.47 395.29 135.04L393.23 137.99L394.43 141.39C397.74 150.7 398.03 160.65 395.29 170.15C391.49 183.31 382.16 194.15 369.69 199.89L364.83 202.13L365.71 207.41C368.75 225.54 363.29 245.34 350.73 261.74C340.27 275.4 325.65 285.51 309.55 290.21C309.46 290.24 309.36 290.25 309.27 290.25L309.32 290.27ZM299.77 217.62C299.87 217.62 299.97 217.63 300.07 217.66C300.35 217.75 300.58 217.95 300.69 218.22L304.4 226.85C310.78 241.68 316.95 264.14 310.77 287.78C325.78 282.99 339.37 273.37 349.2 260.54C361.42 244.58 366.74 225.34 363.8 207.76L362.79 201.73C362.72 201.28 362.95 200.85 363.36 200.66L368.92 198.1C380.87 192.6 389.8 182.22 393.44 169.62C396.06 160.52 395.78 151 392.61 142.08L391.23 138.2C391.12 137.9 391.17 137.56 391.35 137.29L393.71 133.91C396.08 130.52 397.86 126.79 399 122.83C404.38 104.17 394.84 84.72 376.8 77.59L372.46 75.88C372.13 75.75 371.89 75.45 371.84 75.09L371.19 70.47C367.3 42.62 347.35 19.59 320.36 11.81C313.9 9.95001 307.25 9.00001 300.6 9.00001C285.62 9.00001 270.67 13.91 258.5 22.81L252.84 26.95C252.43 27.25 251.87 27.2 251.53 26.83L246.68 21.76C242.78 17.68 237.85 14.7 232.42 13.13C229.51 12.29 226.52 11.86 223.52 11.86C209.34 11.86 196.68 21.39 192.75 35.04C191.95 37.81 191.53 40.68 191.5 43.57L191.43 50.04C191.43 50.51 191.09 50.92 190.63 51.01L184.28 52.29C164.82 56.21 149.33 70.47 143.84 89.5C138.94 106.51 142.83 124.75 154.27 138.31L157.82 142.52C158.09 142.84 158.13 143.29 157.93 143.65L155.26 148.47C153.88 150.96 152.79 153.59 152.01 156.29C149.23 165.94 150.37 176.09 155.22 184.88C160.08 193.67 168.06 200.05 177.71 202.83C184.06 204.66 190.77 204.78 197.15 203.2L202.39 201.9C202.78 201.8 203.2 201.95 203.44 202.28L206.61 206.65C214.92 218.11 226.5 226.24 240.1 230.16C245.81 231.81 251.69 232.64 257.57 232.64C269.5 232.64 281.17 229.23 291.33 222.79L299.26 217.76C299.42 217.66 299.61 217.6 299.8 217.6L299.77 217.62Z" fill="white"/>
<path d="M239.19 124.13L212.39 119.96L212.81 117.28C213.52 112.72 214.61 109.1 216.09 106.41C217.57 103.72 219.51 101.37 221.92 99.33C224.33 97.3 229.57 93.88 237.64 89.06C241.93 86.55 244.28 84 244.68 81.42C245.08 78.83 244.63 76.7 243.33 75.03C242.02 73.36 239.82 72.28 236.72 71.8C233.38 71.28 230.45 71.96 227.92 73.82C225.39 75.69 223.39 79.33 221.92 84.74L195.08 77.09C197.59 67.17 202.5 59.64 209.83 54.5C217.16 49.35 227.4 47.81 240.57 49.86C250.82 51.46 258.76 54.89 264.4 60.14C272.06 67.26 275.14 75.64 273.64 85.27C273.02 89.27 271.31 92.95 268.52 96.32C265.73 99.69 260.51 103.53 252.86 107.82C247.52 110.84 244.06 113.4 242.46 115.48C240.86 117.57 239.77 120.44 239.2 124.11L239.19 124.13ZM210.36 126.94L239.07 131.41L235.13 156.73L206.42 152.26L210.36 126.94Z" fill="white"/>
<path d="M307.59 163.37L292.71 151.32L293.92 149.83C295.97 147.3 297.92 145.47 299.78 144.36C301.63 143.25 303.66 142.5 305.85 142.11C308.04 141.72 312.46 141.49 319.09 141.42C322.6 141.41 324.94 140.69 326.1 139.25C327.26 137.81 327.74 136.35 327.54 134.87C327.34 133.39 326.37 131.95 324.65 130.55C322.8 129.05 320.77 128.42 318.56 128.66C316.35 128.9 313.84 130.41 311.03 133.2L297.36 119.01C302.41 113.85 308.08 110.99 314.38 110.45C320.68 109.91 327.48 112.6 334.79 118.52C340.48 123.13 344.11 128.04 345.69 133.25C347.84 140.31 346.75 146.52 342.41 151.87C340.61 154.09 338.26 155.73 335.37 156.8C332.47 157.87 327.93 158.36 321.73 158.27C317.4 158.22 314.38 158.55 312.66 159.26C310.94 159.97 309.26 161.34 307.61 163.37H307.59ZM288.99 154.86L304.93 167.77L293.54 181.83L277.6 168.92L288.99 154.86Z" fill="white"/>
<path d="M311.75 76.75L305.31 67.95L306.19 67.31C307.69 66.21 309.03 65.49 310.21 65.15C311.39 64.81 312.61 64.69 313.88 64.79C315.14 64.9 317.61 65.41 321.27 66.33C323.2 66.83 324.59 66.78 325.44 66.15C326.29 65.53 326.76 64.79 326.87 63.95C326.97 63.1 326.65 62.17 325.91 61.15C325.11 60.05 324.08 59.41 322.83 59.23C321.58 59.04 319.98 59.51 318.03 60.63L312.56 50.84C316.09 48.73 319.62 47.98 323.17 48.6C326.72 49.22 330.07 51.68 333.23 56C335.69 59.36 336.98 62.59 337.09 65.69C337.25 69.89 335.75 73.15 332.58 75.46C331.27 76.42 329.74 76.98 327.99 77.15C326.24 77.32 323.67 76.93 320.27 75.98C317.89 75.33 316.18 75.07 315.13 75.21C314.08 75.35 312.96 75.86 311.75 76.74V76.75ZM302.75 69.37L309.65 78.79L301.34 84.87L294.44 75.45L302.75 69.37Z" fill="white"/>
<path d="M63.34 201.52C55.07 201.52 46.75 199.26 39.38 194.86C29.23 188.81 22.06 179.44 19.63 169.07C11.39 168.48 3.80001 164.43 -1.25999 157.91C-4.92999 153.19 -7.01999 147.57 -7.32999 141.61C-9.49999 140.13 -11.42 138.33 -13.04 136.26C-20.93 126.11 -19.94 111.86 -10.79 102.92C-14.6 86.66 -8.58999 69.61 4.60001 59.36C14.95 51.32 28.13 48.49 40.87 51.56C42.35 48.18 44.66 45.22 47.58 42.95C52.27 39.3 58.11 37.7 64.01 38.44C69.91 39.18 75.17 42.17 78.81 46.87C79.91 48.28 80.83 49.83 81.57 51.47C93.6 49.5 105.65 54.2 113.14 63.85C119.84 72.47 121.86 83.77 118.58 94.18C119.89 95.3 121.08 96.54 122.12 97.88C130.63 108.83 128.65 124.67 117.69 133.18C114.35 135.78 110.39 137.49 106.21 138.16C104.03 146.32 99.36 153.37 92.67 158.56C84.23 165.12 73.42 167.86 62.88 166.14C62.77 175.85 65.03 189.02 75.9 198.44C76.12 198.63 76.21 198.92 76.15 199.2C76.09 199.48 75.88 199.71 75.6 199.79C71.6 200.95 67.46 201.52 63.31 201.52H63.34ZM30.73 51.92C21.7 51.92 12.89 54.9 5.55001 60.6C-7.26999 70.57 -13.05 87.21 -9.16999 102.99C-9.09999 103.26 -9.18999 103.55 -9.38999 103.75C-18.25 112.11 -19.29 125.67 -11.81 135.3C-10.22 137.35 -8.30999 139.11 -6.14999 140.53C-5.93999 140.67 -5.80999 140.9 -5.79999 141.16C-5.57999 146.93 -3.57999 152.39 -0.0399933 156.96C4.87001 163.28 12.28 167.14 20.29 167.55C20.64 167.57 20.94 167.82 21.02 168.17C23.23 178.34 30.21 187.58 40.18 193.52C50.46 199.65 62.63 201.49 73.81 198.66C63.08 188.62 61.08 175 61.34 165.19C61.34 164.96 61.45 164.74 61.63 164.6C61.81 164.46 62.04 164.4 62.27 164.44C72.66 166.39 83.39 163.8 91.72 157.33C98.26 152.24 102.8 145.31 104.83 137.27C104.91 136.96 105.17 136.73 105.48 136.69C109.57 136.13 113.46 134.49 116.73 131.95C127 123.97 128.86 109.12 120.88 98.85C119.8 97.46 118.55 96.19 117.17 95.05C116.92 94.84 116.82 94.5 116.92 94.2C120.26 84.15 118.38 73.17 111.89 64.82C104.63 55.48 92.88 51 81.22 53.13C80.85 53.2 80.49 53 80.35 52.66C79.64 50.93 78.7 49.31 77.56 47.84C74.17 43.48 69.28 40.69 63.8 40.01C58.32 39.32 52.89 40.81 48.53 44.2C45.65 46.44 43.4 49.41 42.04 52.79C41.89 53.16 41.49 53.35 41.12 53.26C37.67 52.37 34.18 51.94 30.72 51.94L30.73 51.92Z" fill="#E6E6E6"/>
<path d="M35.59 117.9L21.78 121.15L21.45 119.77C20.9 117.42 20.71 115.45 20.9 113.86C21.09 112.27 21.57 110.74 22.34 109.28C23.11 107.82 24.98 105.13 27.94 101.21C29.53 99.15 30.16 97.45 29.85 96.12C29.54 94.79 28.9 93.84 27.94 93.29C26.98 92.74 25.7 92.65 24.1 93.02C22.38 93.43 21.09 94.33 20.23 95.73C19.37 97.13 19.12 99.29 19.47 102.2L4.96002 103.78C4.22002 98.48 5.12003 93.86 7.66003 89.93C10.2 85.99 14.86 83.23 21.65 81.63C26.93 80.39 31.46 80.49 35.22 81.93C40.33 83.87 43.47 87.33 44.64 92.29C45.13 94.35 45.02 96.47 44.34 98.65C43.65 100.83 41.88 103.72 39.01 107.31C37.02 109.83 35.84 111.75 35.48 113.07C35.11 114.4 35.15 116 35.6 117.89L35.59 117.9ZM22.17 124.94L36.96 121.46L40.03 134.51L25.24 137.99L22.17 124.94Z" fill="#EBEBEB"/>
<path d="M70.75 88.73L61.16 85.82L61.45 84.86C61.95 83.23 62.53 81.96 63.21 81.06C63.89 80.15 64.72 79.39 65.71 78.77C66.7 78.15 68.79 77.17 71.99 75.83C73.69 75.13 74.68 74.32 74.96 73.4C75.24 72.48 75.19 71.67 74.8 70.99C74.41 70.31 73.66 69.8 72.55 69.47C71.36 69.11 70.25 69.2 69.23 69.75C68.21 70.3 67.29 71.53 66.47 73.43L57.05 69.24C58.48 65.74 60.67 63.24 63.61 61.74C66.56 60.24 70.38 60.2 75.09 61.63C78.76 62.74 81.48 64.41 83.27 66.63C85.7 69.63 86.39 72.85 85.35 76.3C84.92 77.73 84.1 78.99 82.91 80.08C81.72 81.17 79.61 82.3 76.59 83.48C74.48 84.31 73.08 85.06 72.39 85.74C71.7 86.42 71.15 87.42 70.75 88.73ZM60.06 88.26L70.33 91.38L67.58 100.44L57.31 97.32L60.06 88.26Z" fill="#EBEBEB"/>
<path d="M185 405.5C292.082 405.5 378.89 400.432 378.89 394.18C378.89 387.928 292.082 382.86 185 382.86C77.9175 382.86 -8.89001 387.928 -8.89001 394.18C-8.89001 400.432 77.9175 405.5 185 405.5Z" fill="#F5F5F5"/>
<path d="M92.61 225.38L91.69 224.99C92.52 223.04 92.99 221.41 93.14 220.03L94.1301 220.14C93.9701 221.62 93.4701 223.33 92.6001 225.38H92.61ZM92.22 213.92C90.28 209.66 86.67 206.97 81.79 206.15L81.9601 205.16C87.1901 206.04 91.0501 208.93 93.1301 213.51L92.22 213.92Z" fill="#F8C657"/>
<path d="M86.98 235.44L77.14 239.92L76.69 238.94C75.93 237.27 75.5 235.82 75.4 234.6C75.3 233.38 75.44 232.17 75.79 230.97C76.15 229.77 77.14 227.48 78.78 224.11C79.66 222.33 79.88 220.97 79.45 220.02C79.02 219.07 78.4 218.46 77.6 218.19C76.8 217.92 75.83 218.04 74.69 218.56C73.46 219.12 72.64 219.99 72.2 221.16C71.77 222.34 71.9 223.99 72.59 226.11L61.98 229.44C60.64 225.59 60.63 222.01 61.95 218.69C63.26 215.37 66.34 212.61 71.17 210.41C74.93 208.7 78.33 208.1 81.36 208.62C85.47 209.31 88.33 211.43 89.94 214.97C90.61 216.44 90.85 218.04 90.66 219.77C90.47 221.5 89.57 223.92 87.96 227.03C86.85 229.2 86.25 230.81 86.17 231.86C86.09 232.91 86.36 234.1 86.97 235.45L86.98 235.44ZM78 242.69L88.54 237.89L92.77 247.18L82.23 251.98L78 242.69Z" fill="#F8C657"/>
<path d="M62.64 257.67L57.63 264.46L56.95 263.96C55.79 263.11 54.95 262.29 54.42 261.49C53.89 260.7 53.52 259.82 53.31 258.86C53.1 257.9 52.91 255.96 52.74 253.05C52.66 251.5 52.3 250.49 51.64 250.01C50.98 249.53 50.33 249.35 49.68 249.46C49.03 249.58 48.42 250.03 47.84 250.82C47.22 251.67 46.98 252.57 47.13 253.54C47.28 254.51 48 255.58 49.28 256.76L43.31 263.07C40.93 260.95 39.56 258.51 39.2 255.75C38.83 252.99 39.88 249.94 42.34 246.6C44.25 244 46.34 242.3 48.6 241.5C51.66 240.41 54.42 240.77 56.86 242.57C57.87 243.32 58.64 244.32 59.17 245.57C59.7 246.82 60.01 248.82 60.09 251.54C60.16 253.45 60.36 254.77 60.71 255.51C61.06 256.25 61.69 256.96 62.62 257.65L62.64 257.67ZM59.27 266.03L64.63 258.75L71.05 263.48L65.69 270.76L59.27 266.03Z" fill="#F8C657"/>
<path d="M169.09 390.58C167.47 390.58 165.9 389.7 165.1 388.16C161.08 380.4 156.03 371.29 146.95 361.43C145.89 360.28 145.5 358.65 145.94 357.15C149.31 345.44 154.61 329.43 154.66 329.27C155.44 326.92 157.98 325.64 160.33 326.42C162.68 327.2 163.96 329.74 163.18 332.09C163.13 332.24 158.57 346.03 155.26 357.25C163.61 366.72 168.76 375.71 173.08 384.04C174.22 386.24 173.36 388.95 171.16 390.08C170.5 390.42 169.8 390.58 169.1 390.58H169.09Z" fill="#F8C657"/>
<path d="M176.56 394.18H141.77L160.21 383.72L175.66 384.32L176.56 394.18Z" fill="#477B72"/>
<path d="M173.237 352.027C189.072 347.077 198.582 332.424 194.479 319.298C190.376 306.173 174.213 299.546 158.378 304.496C142.543 309.446 133.032 324.099 137.136 337.225C141.239 350.35 157.402 356.978 173.237 352.027Z" fill="#477B72"/>
<path d="M86.65 311.92C84.89 311.92 83.22 310.88 82.5 309.15C81.55 306.86 82.64 304.24 84.93 303.29C87.54 302.21 87.9 299.55 87.9 299.52C88.09 297.52 89.59 295.88 91.57 295.52C92.64 295.33 93.67 295.02 94.87 294.68C100.95 292.9 108.47 290.7 132.18 297.34C155.56 284.26 155.83 259.74 155.83 258.68C155.83 256.21 157.83 254.19 160.3 254.19H160.32C162.78 254.19 164.79 256.17 164.8 258.64C164.8 259.94 164.66 290.72 134.76 306.14C133.74 306.67 132.56 306.78 131.46 306.46C108.87 299.93 102.5 301.79 97.39 303.29C96.94 303.42 96.48 303.56 96.01 303.69C94.9 306.54 92.6 309.83 88.37 311.58C87.81 311.81 87.23 311.92 86.66 311.92H86.65Z" fill="#477B72"/>
<path d="M139.08 279.83C130.57 246.01 107.9 158.77 180.55 153.44C245.73 148.66 263.62 235.41 267.96 265.47C270.49 282.99 271.35 298.87 271.49 311.29C271.68 327.3 260.43 341.11 244.73 344.3C209.22 351.51 175.61 352.54 152.98 343.61C146.86 341.19 143.16 334.96 143.75 328.41C144.62 318.69 144.64 301.98 139.07 279.85L139.08 279.83Z" fill="#F8C657"/>
<path opacity="0.1" d="M267.96 265.46C263.86 237.14 247.74 158.42 191.3 153.5C184.73 152.93 178.25 156.16 175.23 162.02C172.71 166.9 172.79 172.81 176.56 178.66C189 197.95 218.67 264.62 214.19 300.95C212.15 317.48 201.78 330.68 210.8 349.26C221.69 348.36 233.11 346.67 244.74 344.3C260.44 341.12 271.69 327.31 271.5 311.29C271.35 298.88 270.5 282.99 267.96 265.47V265.46Z" fill="black"/>
<path d="M258.24 311.73C257.99 311.73 257.79 311.53 257.79 311.29C257.61 295.84 256.42 280.44 254.26 265.53C243.46 190.88 214.38 153.12 170.16 156.38C169.92 156.41 169.7 156.21 169.68 155.97C169.66 155.72 169.85 155.51 170.09 155.49C214.84 152.19 244.26 190.21 255.14 265.41C257.3 280.36 258.49 295.8 258.68 311.29C258.68 311.54 258.48 311.74 258.24 311.74V311.73Z" fill="#477B72"/>
<path d="M257.559 354.42C273.394 349.469 282.904 334.816 278.801 321.691C274.698 308.565 258.535 301.938 242.7 306.888C226.865 311.838 217.355 326.492 221.458 339.617C225.561 352.742 241.724 359.37 257.559 354.42Z" fill="#477B72"/>
<path d="M260.3 390.58C258.68 390.58 257.11 389.7 256.31 388.16C252.29 380.4 247.24 371.29 238.16 361.43C237.1 360.28 236.71 358.65 237.15 357.15C240.52 345.44 245.82 329.43 245.87 329.27C246.65 326.92 249.18 325.64 251.54 326.42C253.89 327.2 255.17 329.74 254.39 332.09C254.34 332.24 249.78 346.03 246.47 357.25C254.82 366.72 259.97 375.71 264.29 384.04C265.43 386.24 264.57 388.95 262.37 390.08C261.71 390.42 261.01 390.58 260.31 390.58H260.3Z" fill="#F8C657"/>
<path d="M250.88 253.85C249.27 253.85 247.71 252.98 246.9 251.45C245.75 249.26 246.59 246.55 248.78 245.4C249.64 244.94 269.17 234.27 274.66 208.63C261.64 203.18 238.24 190.89 233.12 184.71C232.62 184.11 232.29 183.39 232.16 182.63C232.04 181.96 231.2 176.65 233.16 171.63L230.8 167.07C229.66 164.87 230.52 162.16 232.72 161.02C234.92 159.88 237.63 160.74 238.77 162.94L242.17 169.5C242.9 170.9 242.83 172.58 242 173.93C240.93 175.66 240.79 178.19 240.88 179.84C246.64 185.05 269.92 197.38 281.31 201.61C283.31 202.35 284.51 204.4 284.18 206.5C279.11 239.27 254.04 252.77 252.97 253.33C252.31 253.68 251.59 253.84 250.89 253.84L250.88 253.85Z" fill="#477B72"/>
<path d="M236.57 184.09C236.15 184.09 235.72 183.97 235.34 183.72C234.3 183.04 234.01 181.65 234.69 180.62C234.84 180.38 238.55 174.79 244.19 173.28C245.38 172.96 246.62 173.67 246.94 174.87C247.26 176.07 246.55 177.3 245.35 177.62C241.41 178.68 238.47 183.04 238.44 183.08C238.01 183.74 237.29 184.1 236.56 184.1L236.57 184.09Z" fill="#477B72"/>
<path d="M267.77 394.18H232.98L251.42 383.72L266.87 384.32L267.77 394.18Z" fill="#477B72"/>
<path d="M194.922 260.189C208.081 259.024 217.898 248.478 216.85 236.634C215.801 224.789 204.283 216.132 191.124 217.297C177.965 218.462 168.147 229.009 169.196 240.853C170.245 252.697 181.763 261.355 194.922 260.189Z" fill="white"/>
<path d="M193.5 239.06C195.31 245.41 193.95 251.37 190.45 252.36C186.96 253.35 182.66 249.01 180.85 242.66C179.04 236.31 180.4 230.35 183.9 229.36C187.4 228.37 191.69 232.71 193.5 239.06Z" fill="#477B72"/>
<path d="M165.8 242.8C180.9 240.86 210.81 232.33 215.74 228.89C211.85 217.53 193.78 207.81 177.61 213.28C163.04 218.21 165.8 242.79 165.8 242.79V242.8Z" fill="#477B72"/>
<path d="M168.73 250.1C187.47 246.54 211.84 240.56 218.81 236.72C218.38 248.95 214.83 261.34 195.69 265.52C180.05 268.94 168.72 250.09 168.72 250.09L168.73 250.1Z" fill="#477B72"/>
<path d="M153.283 261.849C160.063 257.363 160.957 246.77 155.279 238.189C149.602 229.608 139.503 226.289 132.723 230.775C125.943 235.26 125.049 245.853 130.727 254.434C136.404 263.015 146.503 266.335 153.283 261.849Z" fill="white"/>
<path d="M143.34 246.62C144.48 251.98 143.5 256.45 141.15 256.6C138.8 256.76 135.97 252.54 134.84 247.18C133.7 241.82 134.68 237.35 137.03 237.2C139.38 237.04 142.21 241.26 143.34 246.62Z" fill="#477B72"/>
<path d="M124.75 244.57C134.88 245.77 155 244.43 158.34 242.6C155.87 232.9 143.89 221.93 133 223.33C123.19 224.6 124.75 244.56 124.75 244.56V244.57Z" fill="#477B72"/>
<path d="M126.63 250.88C139.22 251.45 155.6 251.13 160.31 249.36C159.88 258.97 157.36 268.13 144.5 267.98C133.99 267.86 126.63 250.88 126.63 250.88Z" fill="#477B72"/>
<path d="M199.09 207.24C180.2 207.24 167.65 197.91 167.03 197.44C165.06 195.94 164.67 193.13 166.17 191.15C167.66 189.18 170.47 188.79 172.44 190.28C172.66 190.44 187.57 201.32 208.28 197.39C210.72 196.93 213.06 198.53 213.52 200.96C213.98 203.39 212.38 205.74 209.95 206.2C206.14 206.92 202.51 207.23 199.09 207.23V207.24Z" fill="#477B72"/>
<path d="M118.88 199.51C118.38 199.51 117.86 199.43 117.36 199.25C115.03 198.41 113.82 195.84 114.66 193.51C117.04 186.89 120.98 182.59 126.38 180.74C136.17 177.37 146.71 183.92 147.15 184.2C149.24 185.52 149.87 188.29 148.55 190.39C147.23 192.48 144.47 193.11 142.37 191.79C140.33 190.52 134 187.58 129.27 189.23C126.55 190.18 124.53 192.57 123.1 196.54C122.44 198.37 120.72 199.51 118.88 199.51Z" fill="#477B72"/>
<path d="M154.23 275.19C154.11 275.19 153.98 275.17 153.86 275.14C153.15 274.93 152.74 274.21 152.94 273.5C152.97 273.38 153.82 270.47 157.5 268.57C162.65 265.92 170.49 266.47 180.81 270.2C181.51 270.45 181.87 271.23 181.62 271.92C181.37 272.62 180.6 272.98 179.9 272.73C168.07 268.44 161.92 269.37 158.85 270.9C156.17 272.24 155.56 274.15 155.53 274.23C155.35 274.81 154.82 275.19 154.24 275.19H154.23Z" fill="#477B72"/>
<path d="M111.88 270.26C85.78 272.6 67.09 283.41 67.09 283.41C74.82 281.95 102.45 316.14 109.55 342.5C122.65 337.64 137.93 334.33 154.23 331.75C144.36 304.57 126.31 273.79 111.88 270.26Z" fill="#F8C657"/>
<path opacity="0.6" d="M111.88 270.26C85.78 272.6 67.09 283.41 67.09 283.41C74.82 281.95 102.45 316.14 109.55 342.5C122.65 337.64 137.93 334.33 154.23 331.75C144.36 304.57 126.31 273.79 111.88 270.26Z" fill="white"/>
<path d="M111.88 270.26C94.8 268.33 67.07 282.63 67.07 282.63C62.16 285.76 63.49 291.64 66.17 294.12C68.74 290.43 97.4 280.83 108.18 279.54C102.82 274.58 107.8 270.98 111.88 270.26Z" fill="#F8C657"/>
<path opacity="0.2" d="M111.88 270.26C94.8 268.33 67.07 282.63 67.07 282.63C62.16 285.76 63.49 291.64 66.17 294.12C68.74 290.43 97.4 280.83 108.18 279.54C102.82 274.58 107.8 270.98 111.88 270.26Z" fill="white"/>
<path d="M86.66 311.92C85.19 311.92 83.76 311.2 82.9 309.88C79.65 304.9 81.68 297.29 82.12 295.82C82.83 293.45 85.33 292.1 87.7 292.81C90.07 293.52 91.42 296.01 90.72 298.38C89.99 300.89 89.84 304.1 90.42 304.98C91.77 307.05 91.19 309.83 89.11 311.19C88.35 311.68 87.5 311.92 86.66 311.92Z" fill="#477B72"/>
</g>
<defs>
<clipPath id="clip0_0_2623">
<rect width="500" height="405.5" fill="white" transform="translate(-65)"/>
</clipPath>
</defs>
</svg>
