<svg width="298" height="190" viewBox="0 0 298 190" fill="none" xmlns="http://www.w3.org/2000/svg">
<path d="M2.24841 157.589V175.027H27.7521H55.8789V157.589H2.24841Z" fill="#F5F5F5"/>
<path d="M0 152.713V157.589H57.7526V152.713H27.7521H0Z" fill="#E0E0E0"/>
<path d="M28.8763 175.027H55.8789V157.589H57.7526V152.713H27.7521V157.138L28.8763 175.027Z" fill="#E0E0E0"/>
<path d="M20.6277 160.4H9.75171V163.023H20.6277V160.4Z" fill="#E0E0E0"/>
<path d="M22.3141 166.306H8.35071V171.851H22.3141V166.306Z" fill="white"/>
<path d="M10.5012 135.296V152.735H36.0006H64.1274V135.296H10.5012Z" fill="#F5F5F5"/>
<path d="M8.24854 130.42V135.296H66.0054V130.42H36.0006H8.24854Z" fill="#E0E0E0"/>
<path d="M37.1248 152.735H64.1274V135.296H66.0054V130.42H36.0006V134.845L37.1248 152.735Z" fill="#E0E0E0"/>
<path d="M28.8764 138.107H18.0004V140.73H28.8764V138.107Z" fill="#E0E0E0"/>
<path d="M30.5627 144.018H16.5994V149.562H30.5627V144.018Z" fill="white"/>
<path d="M43.4784 2.46777H3.77295V60.0203H43.4784V2.46777Z" fill="#E0E0E0"/>
<path d="M41.4855 2.46777H1.78003V60.0203H41.4855V2.46777Z" fill="#F5F5F5"/>
<path d="M36.5543 8.70215H6.71558V53.786H36.5543V8.70215Z" fill="white"/>
<path d="M36.5542 53.7859C36.5542 53.7859 36.5542 53.7092 36.5542 53.5645C36.5542 53.4197 36.5542 53.2025 36.5542 52.9257C36.5542 52.3593 36.5542 51.5289 36.5542 50.4516C36.5542 48.2925 36.5542 45.1413 36.5287 41.164C36.5287 33.2177 36.4989 21.9585 36.4818 8.70205L36.5798 8.79999H6.74533L6.85179 8.69353C6.85179 25.7016 6.85179 41.3811 6.85179 53.7774L6.76662 53.6922L28.4845 53.7348L34.4847 53.7561H36.0603C36.418 53.7561 36.6053 53.7561 36.6053 53.7561H36.0773H34.5187H28.5569L6.78365 53.8029H6.69849V53.7178C6.69849 41.3215 6.69849 25.642 6.69849 8.63391V8.52319H6.80921H36.6437H36.7416V8.70631C36.7416 21.9883 36.7075 33.2688 36.6948 41.2363C36.6948 45.2009 36.6948 48.3436 36.665 50.4984C36.665 51.5673 36.665 52.3891 36.665 52.9512C36.665 53.2238 36.665 53.4367 36.665 53.5815C36.665 53.7263 36.5542 53.7859 36.5542 53.7859Z" fill="#E0E0E0"/>
<path d="M41.6004 2.46777C41.3944 2.8317 41.1564 3.17658 40.8892 3.49831C40.4293 4.11152 39.7735 4.95043 39.0283 5.85747C38.2831 6.76452 37.5805 7.56084 37.0652 8.13998C36.8073 8.46179 36.5223 8.76097 36.2135 9.03425C36.4369 8.68215 36.6905 8.35016 36.9715 8.04204L38.8622 5.72546L40.77 3.40463C41.02 3.06959 41.2978 2.7562 41.6004 2.46777Z" fill="#E0E0E0"/>
<path d="M36.6904 53.6411C38.1732 56 39.919 58.1829 41.8942 60.148L36.6904 53.6411Z" fill="white"/>
<path d="M41.9113 60.1479C41.5793 59.907 41.2751 59.6299 41.0043 59.3218C39.6201 57.9093 38.3831 56.3598 37.3122 54.6972C37.0732 54.3649 36.8705 54.008 36.7075 53.6326C36.9751 53.9409 37.2199 54.2682 37.44 54.612C37.8658 55.2252 38.4918 56.0684 39.2072 56.9669C39.9226 57.8654 40.6125 58.6703 41.115 59.2111C41.4023 59.5041 41.6684 59.8172 41.9113 60.1479Z" fill="#E0E0E0"/>
<path d="M1.77148 59.9733L6.97101 53.5559L1.77148 59.9733Z" fill="white"/>
<path d="M6.97527 53.5559C6.19615 54.6911 5.35749 55.7842 4.4628 56.8306C3.62164 57.9248 2.72329 58.9739 1.77148 59.9733C2.55298 58.8388 3.39302 57.7458 4.28821 56.6986C5.12874 55.6051 6.02564 54.5561 6.97527 53.5559Z" fill="#E0E0E0"/>
<path d="M1.77148 2.46777C2.6788 3.42575 3.53182 4.43373 4.32653 5.48699C5.1699 6.49247 5.9561 7.54454 6.68144 8.63822C5.78577 7.67817 4.94278 6.67029 4.1562 5.619C3.30594 4.61166 2.5099 3.55976 1.77148 2.46777Z" fill="#E0E0E0"/>
<path d="M27.2581 17.8535H17.2678V46.2231H27.2581V17.8535Z" fill="#E0E0E0"/>
<path d="M257.702 168.929C256.765 168.125 254.67 165.574 256.284 162.606C256.876 161.515 258.137 160.979 259.265 160.498C260.394 160.016 261.599 159.603 262.544 158.794C264.32 157.283 264.81 154.77 265.989 152.756C267.343 150.439 269.869 148.706 272.539 148.825C275.596 148.966 278.147 151.461 279.301 154.31C280.455 157.159 280.498 160.319 280.523 163.393C280.523 165.097 280.459 167.009 279.212 168.159C278.062 169.219 276.329 169.232 274.77 169.181L258.06 168.67" fill="#F5F5F5"/>
<path d="M289.662 122.985H245.719L253.636 170.181C253.799 171.165 254.238 172.082 254.902 172.826C255.566 173.57 256.428 174.111 257.387 174.384L257.54 174.427C257.672 174.457 257.796 174.503 257.932 174.525C258.227 174.585 258.526 174.619 258.827 174.627V174.674L259.044 174.64H278.632C278.994 174.639 279.355 174.603 279.71 174.533C280.852 174.356 281.906 173.809 282.708 172.976C283.51 172.143 284.017 171.07 284.151 169.921L287.984 137.4L288.154 136.122H288.133L289.64 123.228L289.662 122.985ZM281.371 153.088H276.865L277.321 139.393H282.546L281.371 153.088ZM282.98 139.393H287.298L285.689 153.088H281.809L282.98 139.393ZM270.099 168.273L269.822 156.375H276.316L275.92 168.273H270.099ZM263.076 156.375H269.387L269.66 168.273H264L263.076 156.375ZM263.562 168.273H258.273C257.77 165.063 257.115 160.885 256.408 156.375H262.638L263.562 168.273ZM262.812 153.088L261.748 139.393H268.987L269.302 153.088H262.812ZM269.737 153.088L269.421 139.393H276.865L276.439 153.088H269.737ZM269.349 136.105L269.055 123.424H277.402L276.976 136.105H269.349ZM268.923 136.105H261.501L260.517 123.424H268.608L268.923 136.105ZM261.066 136.105H253.214C252.937 134.355 252.673 132.699 252.435 131.204C251.617 126.094 251.31 124.148 251.157 123.424H260.1L261.066 136.105ZM261.322 139.393L262.387 153.088H255.892C255.675 151.7 255.467 150.294 255.232 148.889C254.721 145.653 254.215 142.421 253.733 139.393H261.322ZM255.454 153.088H251.195L248.896 139.393H253.278C253.963 143.626 254.721 148.335 255.45 153.088H255.454ZM255.973 156.375C256.616 160.493 257.251 164.552 257.834 168.273H253.763L251.766 156.375H255.973ZM276.363 168.273L276.759 156.375H281.094L280.08 168.273H276.363ZM277.432 136.105L277.857 123.424H283.913L282.827 136.105H277.432ZM250.727 123.424C250.902 124.339 251.702 129.33 252.775 136.105H248.364L246.234 123.424H250.727ZM283.913 168.273H280.506L281.549 156.375H285.327L283.913 168.273ZM287.686 136.105H283.253L284.334 123.424H289.172L287.686 136.105Z" fill="#E0E0E0"/>
<path d="M290.641 5.55078V44.1959H235.137L233.135 5.82332L290.641 5.55078Z" fill="#E0E0E0"/>
<path d="M233.135 5.82332V44.115H288.64V5.82332H233.135Z" fill="white"/>
<path d="M288.904 44.379H232.871V5.55933H288.904V44.379ZM233.399 43.851H288.363V6.08737H233.399V43.851Z" fill="#E0E0E0"/>
<path d="M282.627 10.5801H239.148V39.3585H282.627V10.5801Z" fill="white"/>
<path d="M282.627 10.58H282.414H281.796H279.407L270.465 10.614L239.165 10.6779L239.289 10.5501C239.289 19.3438 239.289 29.087 239.289 39.3243L239.153 39.188L282.631 39.2135L282.525 39.3243C282.546 30.5647 282.567 23.385 282.58 18.3856C282.58 15.8859 282.601 13.9356 282.61 12.5942C282.61 11.9327 282.61 11.426 282.61 11.0739C282.61 10.729 282.61 10.5459 282.61 10.5459C282.61 10.5459 282.61 10.712 282.61 11.0526C282.61 11.3933 282.61 11.9043 282.61 12.5516C282.61 13.8845 282.61 15.8306 282.635 18.3175C282.635 23.3339 282.669 30.5392 282.695 39.3243V39.435H282.584L239.106 39.4605H238.97V39.3668C238.97 29.1467 238.97 19.3864 238.97 10.5927V10.4692H239.097L270.478 10.5289L279.42 10.5629H281.784H282.384L282.627 10.58Z" fill="#E0E0E0"/>
<path d="M233.135 5.72534C233.478 5.89098 233.798 6.09839 234.089 6.34281C234.66 6.76865 235.431 7.33502 236.265 8.00359C237.1 8.67217 237.837 9.30241 238.352 9.77509C238.651 10.011 238.919 10.2844 239.148 10.5885C239.097 10.6481 237.76 9.54514 236.095 8.21651C234.43 6.88789 233.089 5.77644 233.135 5.72534Z" fill="#E0E0E0"/>
<path d="M288.64 5.8233C288.687 5.88292 287.362 6.99437 285.718 8.31022C284.075 9.62607 282.674 10.6396 282.627 10.58C282.58 10.5203 283.904 9.40889 285.548 8.09304C287.192 6.77719 288.593 5.76368 288.64 5.8233Z" fill="#E0E0E0"/>
<path d="M288.597 44.1193L282.401 39.1072L288.597 44.1193Z" fill="white"/>
<path d="M282.401 39.1071C282.452 39.0475 283.875 40.1206 285.582 41.5046C287.29 42.8886 288.64 44.0596 288.593 44.1193C288.546 44.1789 287.119 43.1058 285.412 41.7175C283.704 40.3293 282.359 39.1625 282.401 39.1071Z" fill="#E0E0E0"/>
<path d="M233.136 44.1151C233.089 44.0554 234.383 42.9525 236.027 41.6537C237.671 40.3549 239.038 39.3499 239.085 39.4095C239.131 39.4691 237.841 40.5721 236.197 41.8709C234.554 43.1697 233.182 44.1747 233.136 44.1151Z" fill="#E0E0E0"/>
<path d="M247.976 19.5441V29.1809H275.336V19.5441H247.976Z" fill="#E0E0E0"/>
<path d="M289.662 175.027C289.662 175.087 225.649 175.138 146.702 175.138C67.7556 175.138 3.73035 175.087 3.73035 175.027C3.73035 174.968 67.7301 174.917 146.702 174.917C225.675 174.917 289.662 174.964 289.662 175.027Z" fill="#455A64"/>
<path d="M38.8963 26.166H255.548C256.309 26.166 257.039 26.4684 257.577 27.0067C258.115 27.5449 258.418 28.275 258.418 29.0362V167.307C258.417 168.951 257.763 170.527 256.6 171.69C255.438 172.852 253.861 173.506 252.217 173.507H41.8006C40.155 173.507 38.5769 172.854 37.4133 171.69C36.2498 170.526 35.5961 168.948 35.5961 167.303V29.462C35.5972 28.5875 35.9454 27.7491 36.5642 27.1311C37.183 26.5131 38.0218 26.166 38.8963 26.166Z" fill="#455A64"/>
<path d="M26.2787 162.614H267.688V169.675C267.688 171.224 267.073 172.71 265.977 173.806C264.881 174.902 263.395 175.517 261.846 175.517H32.1212C30.5717 175.517 29.0856 174.902 27.9899 173.806C26.8942 172.71 26.2787 171.224 26.2787 169.675V162.614Z" fill="#455A64"/>
<path d="M251.813 32.0129H41.5748V156.448H251.813V32.0129Z" fill="#F5F5F5"/>
<path d="M125.04 162.614L128.038 167.379H170.192L172.973 162.614H125.04Z" fill="#455A64"/>
<path d="M258.456 162.567H35.6301V163.279H258.456V162.567Z" fill="#455A64"/>
<path d="M101.103 26.1658H77.9546V18.0067C77.9546 12.2536 82.6176 7.38623 88.3707 7.38623L101.103 7.58637V26.1658Z" fill="#E0E0E0"/>
<path d="M87.8724 7.37342C87.8724 7.37342 101.048 6.17681 101.048 23.3595V157.01H204.442V18.5007C204.442 17.0078 204.147 15.5297 203.575 14.1508C203.002 12.772 202.164 11.5196 201.107 10.4651C200.05 9.41069 198.796 8.57495 197.416 8.00571C196.035 7.43648 194.557 7.14493 193.064 7.14773L87.8724 7.37342Z" fill="white"/>
<path d="M87.8724 7.37349L164.366 7.1265L182.89 7.0754L192.74 7.04559C194.466 6.99821 196.18 7.33994 197.755 8.04544C199.33 8.75093 200.727 9.80208 201.84 11.1209C202.98 12.4785 203.789 14.082 204.204 15.8052C204.313 16.2381 204.394 16.6776 204.447 17.121C204.506 17.5468 204.502 18.011 204.532 18.4581C204.532 19.3467 204.532 20.241 204.532 21.1409C204.532 24.7265 204.532 28.3703 204.532 32.0723C204.532 39.4678 204.532 47.0747 204.532 54.8932C204.532 86.1244 204.532 120.473 204.532 156.499V157.121H204.421H101.027H100.924V157.019C100.924 110.747 100.954 71.4541 100.967 43.7446C100.967 36.8119 100.967 30.6032 100.967 25.1907C100.967 23.8365 100.967 22.5335 100.89 21.2857C100.816 20.0883 100.651 18.8982 100.396 17.7257C100.152 16.6572 99.8126 15.6126 99.3829 14.6043C98.9785 13.7037 98.4819 12.8474 97.901 12.0492C96.9062 10.7218 95.631 9.62985 94.1663 8.85116C93.0961 8.28515 91.9482 7.88048 90.7596 7.65029C90.0387 7.50375 89.3062 7.42109 88.5708 7.4033C88.0768 7.4033 87.8213 7.4033 87.8213 7.4033C88.0709 7.38841 88.3212 7.38841 88.5708 7.4033C89.3085 7.41558 90.0438 7.49252 90.7681 7.63325C91.9563 7.86052 93.1043 8.26232 94.1748 8.82561C95.6497 9.60172 96.934 10.6955 97.935 12.0279C98.5211 12.8259 99.0234 13.6821 99.434 14.583C99.868 15.5954 100.211 16.6442 100.46 17.7172C100.718 18.8937 100.886 20.0881 100.963 21.29C101.056 22.542 101.044 23.845 101.044 25.1992C101.044 30.6117 101.044 36.8204 101.044 43.7531C101.044 71.4797 101.065 110.772 101.082 157.027L100.98 156.929H204.374L204.263 157.04V156.529C204.263 120.49 204.263 86.1542 204.263 54.923C204.263 47.113 204.263 39.5061 204.263 32.1021V21.1409C204.238 19.3482 204.395 17.5511 203.944 15.8477C203.556 14.1678 202.788 12.599 201.7 11.2614C200.607 9.96314 199.235 8.92791 197.687 8.23269C196.139 7.53746 194.454 7.20012 192.757 7.24574H182.886L164.332 7.27555L87.8724 7.37349Z" fill="#455A64"/>
<path d="M145.306 47.9349C145.306 47.9946 139.016 48.0457 131.253 48.0457C123.49 48.0457 117.2 47.9946 117.2 47.9349C117.2 47.8753 123.486 47.8242 131.253 47.8242C139.02 47.8242 145.306 47.8838 145.306 47.9349Z" fill="#455A64"/>
<path d="M151.6 51.2906C151.6 51.3545 143.905 51.4014 134.408 51.4014C124.912 51.4014 117.221 51.3545 117.221 51.2906C117.221 51.2268 124.916 51.1799 134.408 51.1799C143.9 51.1799 151.6 51.231 151.6 51.2906Z" fill="#455A64"/>
<path d="M153.857 64.5128C153.857 64.5724 145.91 64.6235 136.107 64.6235C126.305 64.6235 118.358 64.5724 118.358 64.5128C118.358 64.4532 126.305 64.4021 136.107 64.4021C145.91 64.4021 153.857 64.4489 153.857 64.5128Z" fill="#455A64"/>
<path d="M177.044 77.3988C177.044 77.4584 163.757 77.5095 147.371 77.5095C130.985 77.5095 117.698 77.4584 117.698 77.3988C117.698 77.3392 130.98 77.2881 147.371 77.2881C163.762 77.2881 177.044 77.3349 177.044 77.3988Z" fill="#455A64"/>
<path d="M177.044 81.2399C177.044 81.3037 163.757 81.3506 147.371 81.3506C130.985 81.3506 117.698 81.3037 117.698 81.2399C117.698 81.176 130.98 81.1292 147.371 81.1292C163.762 81.1292 177.044 81.1802 177.044 81.2399Z" fill="#455A64"/>
<path d="M177.044 85.0853C177.044 85.1492 163.757 85.196 147.371 85.196C130.985 85.196 117.698 85.1492 117.698 85.0853C117.698 85.0214 130.98 84.9746 147.371 84.9746C163.762 84.9746 177.044 85.0257 177.044 85.0853Z" fill="#455A64"/>
<path d="M177.044 88.9308C177.044 88.9904 163.757 89.0415 147.371 89.0415C130.985 89.0415 117.698 88.9904 117.698 88.9308C117.698 88.8712 130.98 88.8201 147.371 88.8201C163.762 88.8201 177.044 88.8712 177.044 88.9308Z" fill="#455A64"/>
<path d="M177.044 92.776C177.044 92.8356 163.757 92.8867 147.371 92.8867C130.985 92.8867 117.698 92.8356 117.698 92.776C117.698 92.7164 130.98 92.6653 147.371 92.6653C163.762 92.6653 177.044 92.7121 177.044 92.776Z" fill="#455A64"/>
<path d="M140.204 96.6215C140.204 96.6811 135.162 96.7322 128.949 96.7322C122.736 96.7322 117.698 96.6811 117.698 96.6215C117.698 96.5618 122.736 96.5107 128.949 96.5107C135.162 96.5107 140.204 96.5576 140.204 96.6215Z" fill="#455A64"/>
<path d="M127.058 28.0737C127.055 27.744 127.12 27.4173 127.25 27.1141C127.379 26.8108 127.569 26.5376 127.809 26.3116C128.049 26.0856 128.334 25.9117 128.644 25.8009C128.954 25.6901 129.285 25.6447 129.613 25.6677C129.988 25.6475 130.362 25.7138 130.707 25.8615C131.052 26.0092 131.358 26.2343 131.602 26.5193L130.772 27.2731C130.644 27.1051 130.479 26.9689 130.29 26.8751C130.101 26.7813 129.893 26.7324 129.682 26.7323C129.331 26.7323 128.996 26.8713 128.748 27.1189C128.501 27.3665 128.361 27.7023 128.361 28.0524C128.361 28.4025 128.501 28.7383 128.748 28.9858C128.996 29.2334 129.331 29.3725 129.682 29.3725C129.893 29.3723 130.101 29.3234 130.29 29.2296C130.479 29.1358 130.644 28.9996 130.772 28.8317L131.602 29.5811C131.36 29.8701 131.055 30.0992 130.71 30.2506C130.365 30.4021 129.99 30.4717 129.613 30.4541C129.287 30.4769 128.959 30.4322 128.65 30.3229C128.341 30.2137 128.058 30.0421 127.819 29.8188C127.579 29.5956 127.388 29.3255 127.257 29.0253C127.126 28.7251 127.059 28.4011 127.058 28.0737Z" fill="#455A64"/>
<path d="M135.878 29.3724V30.3816H132.168V25.7612H135.792V26.7705H133.459V27.5498H135.516V28.5292H133.459V29.3809L135.878 29.3724Z" fill="#455A64"/>
<path d="M138.624 29.1467H137.913V30.3731H136.606V25.7612H138.735C140.012 25.7612 140.787 26.4128 140.787 27.4646C140.799 27.7701 140.718 28.072 140.557 28.3316C140.395 28.5911 140.16 28.7963 139.88 28.921L140.881 30.3731H139.48L138.624 29.1467ZM138.624 26.7832H137.9V28.1374H138.624C139.165 28.1374 139.438 27.8862 139.438 27.4646C139.438 27.043 139.178 26.7918 138.637 26.7918L138.624 26.7832Z" fill="#455A64"/>
<path d="M142.406 26.796H140.988V25.7612H145.127V26.796H143.713V30.3816H142.406V26.796Z" fill="#455A64"/>
<path d="M145.617 25.7612H146.924V30.3816H145.617V25.7612Z" fill="#455A64"/>
<path d="M149.164 26.7705V27.7882H151.204V28.7975H149.164V30.3816H147.856V25.7612H151.48V26.7705H149.164Z" fill="#455A64"/>
<path d="M152.094 25.7612H153.401V30.3816H152.094V25.7612Z" fill="#455A64"/>
<path d="M154.095 28.0736C154.093 27.7441 154.158 27.4177 154.288 27.1148C154.417 26.8118 154.608 26.5389 154.848 26.313C155.087 26.0872 155.371 25.9132 155.681 25.8022C155.992 25.6911 156.321 25.6453 156.65 25.6676C157.024 25.6474 157.398 25.7138 157.742 25.8615C158.086 26.0092 158.391 26.2343 158.635 26.5193L157.804 27.273C157.677 27.1048 157.512 26.9684 157.323 26.8746C157.133 26.7808 156.925 26.732 156.714 26.7322C156.364 26.7322 156.028 26.8713 155.78 27.1188C155.533 27.3664 155.394 27.7022 155.394 28.0523C155.394 28.4024 155.533 28.7382 155.78 28.9858C156.028 29.2333 156.364 29.3724 156.714 29.3724C156.925 29.3726 157.133 29.3238 157.323 29.23C157.512 29.1362 157.677 28.9998 157.804 28.8316L158.635 29.5811C158.394 29.8699 158.089 30.099 157.745 30.2505C157.4 30.402 157.026 30.4716 156.65 30.4541C155.172 30.4753 154.095 29.4789 154.095 28.0736Z" fill="#455A64"/>
<path d="M162.22 29.4831H160.27L159.904 30.3816H158.571L160.61 25.7612H161.888L163.932 30.3816H162.574L162.22 29.4831ZM161.841 28.5207L161.245 27.043L160.649 28.5207H161.841Z" fill="#455A64"/>
<path d="M165.069 26.796H163.651V25.7612H167.79V26.796H166.376V30.3816H165.069V26.796Z" fill="#455A64"/>
<path d="M168.276 25.7612H169.583V30.3816H168.276V25.7612Z" fill="#455A64"/>
<path d="M170.277 28.0737C170.277 26.6855 171.367 25.6677 172.832 25.6677C174.297 25.6677 175.387 26.6855 175.387 28.0737C175.387 29.462 174.297 30.4755 172.832 30.4755C171.367 30.4755 170.277 29.4577 170.277 28.0737ZM174.11 28.0737C174.095 27.8305 174.01 27.5968 173.865 27.4014C173.72 27.2059 173.52 27.0573 173.291 26.9739C173.062 26.8904 172.814 26.8758 172.577 26.9318C172.34 26.9878 172.124 27.112 171.957 27.2891C171.79 27.4661 171.678 27.6883 171.635 27.9281C171.593 28.168 171.621 28.415 171.718 28.6388C171.814 28.8626 171.973 29.0534 172.177 29.1876C172.38 29.3217 172.618 29.3934 172.862 29.3938C173.031 29.3937 173.198 29.3587 173.354 29.2911C173.509 29.2235 173.648 29.1248 173.764 29.001C173.879 28.8772 173.968 28.731 174.024 28.5715C174.081 28.412 174.104 28.2426 174.093 28.0737H174.11Z" fill="#455A64"/>
<path d="M180.497 25.7612V30.3816H179.42L177.38 27.9202V30.3816H176.103V25.7612H177.176L179.215 28.2226V25.7612H180.497Z" fill="#455A64"/>
<path d="M185.735 112.85C185.735 112.91 179.841 112.961 172.577 112.961C165.312 112.961 159.414 112.91 159.414 112.85C159.414 112.791 165.307 112.74 172.577 112.74C179.846 112.74 185.735 112.791 185.735 112.85Z" fill="#455A64"/>
<path d="M185.735 116.564C185.735 116.623 179.841 116.674 172.577 116.674C165.312 116.674 159.414 116.623 159.414 116.564C159.414 116.504 165.295 116.444 172.581 116.444C179.867 116.444 185.735 116.504 185.735 116.564Z" fill="#455A64"/>
<path d="M183.989 132.699C183.983 132.636 183.983 132.573 183.989 132.511C183.989 132.379 183.968 132.2 183.951 131.97C183.951 131.851 183.942 131.719 183.925 131.574C183.925 131.425 183.878 131.268 183.853 131.097C183.8 130.7 183.719 130.308 183.61 129.922C183.342 128.856 182.911 127.838 182.333 126.903C180.981 124.642 178.884 122.924 176.402 122.043C173.921 121.163 171.209 121.175 168.736 122.078C168.23 122.26 167.738 122.476 167.262 122.725C166.78 122.991 166.316 123.288 165.874 123.615C165.425 123.951 164.998 124.315 164.596 124.706C164.199 125.118 163.829 125.556 163.489 126.017C162.786 126.961 162.241 128.012 161.875 129.13C161.097 131.444 161.097 133.949 161.875 136.263C162.241 137.381 162.786 138.432 163.489 139.376C163.829 139.837 164.199 140.275 164.596 140.687C164.998 141.078 165.425 141.442 165.874 141.778C166.743 142.435 167.708 142.955 168.736 143.319C170.632 144.007 172.678 144.179 174.663 143.817C176.245 143.522 177.746 142.894 179.067 141.976C180.388 141.057 181.5 139.869 182.328 138.49C182.906 137.555 183.337 136.537 183.606 135.471C183.715 135.085 183.796 134.693 183.849 134.295C183.874 134.125 183.904 133.968 183.921 133.823C183.938 133.678 183.921 133.542 183.947 133.422C183.947 133.193 183.976 132.997 183.985 132.882C183.978 132.821 183.978 132.759 183.985 132.699C183.991 132.759 183.991 132.821 183.985 132.882V133.427C183.985 133.546 183.985 133.682 183.985 133.827C183.985 133.972 183.947 134.134 183.921 134.308C183.878 134.708 183.804 135.104 183.7 135.492C183.445 136.571 183.026 137.603 182.456 138.554C181.101 140.858 178.982 142.616 176.466 143.521C173.951 144.426 171.198 144.423 168.684 143.511C168.169 143.327 167.667 143.108 167.181 142.855C166.689 142.587 166.216 142.284 165.767 141.948C165.306 141.609 164.868 141.239 164.456 140.841C164.051 140.42 163.674 139.974 163.327 139.504C162.61 138.542 162.053 137.471 161.679 136.331C160.885 133.973 160.885 131.42 161.679 129.062C162.054 127.922 162.611 126.851 163.327 125.889C163.674 125.419 164.052 124.974 164.46 124.556C164.871 124.157 165.307 123.786 165.767 123.445C167.059 122.491 168.537 121.819 170.105 121.473C171.673 121.127 173.296 121.114 174.87 121.435C176.443 121.756 177.932 122.404 179.238 123.337C180.545 124.271 181.642 125.468 182.456 126.852C183.025 127.803 183.444 128.835 183.7 129.914C183.804 130.303 183.879 130.7 183.921 131.102C183.947 131.276 183.972 131.434 183.985 131.579C183.998 131.723 183.985 131.86 183.985 131.983V132.524C183.991 132.582 183.993 132.64 183.989 132.699Z" fill="#477B72"/>
<path d="M179.706 134.388C180.643 130.448 178.209 126.494 174.269 125.557C170.329 124.62 166.375 127.054 165.438 130.994C164.501 134.934 166.935 138.888 170.875 139.825C174.815 140.762 178.769 138.328 179.706 134.388Z" fill="#477B72"/>
<path d="M188.886 126.384L188.58 126.554L187.664 127.039L184.142 128.875L178.577 131.775C178.011 132.069 177.399 132.265 176.767 132.354C176.423 132.397 176.073 132.367 175.742 132.266C175.41 132.164 175.103 131.994 174.842 131.766C174.564 131.526 174.367 131.206 174.276 130.851C174.224 130.665 174.219 130.469 174.261 130.281C174.303 130.093 174.392 129.919 174.518 129.773C174.784 129.483 175.152 129.306 175.545 129.279C175.75 129.251 175.96 129.291 176.141 129.393C176.322 129.494 176.466 129.651 176.55 129.841V129.871C176.56 131.101 176.123 132.292 175.319 133.223C174.899 133.725 174.379 134.136 173.793 134.429C173.207 134.723 172.567 134.892 171.912 134.926C171.222 134.963 170.531 134.861 169.881 134.626C169.23 134.392 168.634 134.029 168.126 133.559C167.578 133.078 167.196 132.435 167.036 131.724C166.963 131.349 167.014 130.96 167.181 130.616C167.351 130.265 167.646 129.989 168.007 129.841C168.195 129.769 168.397 129.746 168.596 129.774C168.795 129.801 168.983 129.879 169.144 129.999C169.451 130.244 169.675 130.577 169.787 130.953C169.909 131.316 169.968 131.698 169.962 132.081C169.979 132.271 169.979 132.462 169.962 132.652C169.953 132.844 169.928 133.035 169.889 133.223C169.59 134.771 168.747 136.162 167.513 137.145C166.891 137.66 166.168 138.04 165.391 138.26C164.614 138.48 163.799 138.535 162.999 138.422C161.351 138.146 159.872 137.246 158.869 135.91C158.283 135.16 157.878 134.286 157.685 133.355C157.476 132.429 157.549 131.462 157.894 130.578C158.081 130.136 158.399 129.761 158.805 129.505C159.217 129.25 159.708 129.158 160.185 129.245C160.418 129.298 160.636 129.402 160.825 129.549C161.013 129.697 161.167 129.884 161.275 130.097C161.482 130.5 161.634 130.93 161.726 131.374C162.126 133.096 162.016 134.897 161.411 136.557C160.838 138.156 159.733 139.509 158.281 140.389C156.9 141.232 155.276 141.587 153.669 141.399C152.902 141.305 152.161 141.065 151.485 140.692C150.83 140.323 150.252 139.833 149.781 139.248C148.871 138.149 148.373 136.766 148.372 135.339C148.386 134.667 148.53 134.005 148.798 133.389C148.912 133.084 149.089 132.805 149.316 132.572C149.543 132.338 149.816 132.154 150.118 132.03C150.424 131.935 150.752 131.926 151.063 132.005C151.355 132.101 151.622 132.262 151.842 132.477C152.253 132.891 152.561 133.396 152.741 133.951C152.926 134.463 153.022 135.003 153.026 135.548C153.026 135.812 153.026 136.067 153.026 136.323C153.026 136.578 153.005 136.825 152.979 137.068C152.82 138.741 152.332 140.366 151.544 141.85C151.049 142.786 150.437 143.654 149.722 144.435C149.479 144.703 149.274 144.891 149.138 145.018C149.002 145.146 148.93 145.206 148.93 145.206C148.93 145.206 148.993 145.133 149.125 145.001C149.257 144.869 149.449 144.678 149.688 144.405C150.383 143.616 150.981 142.745 151.468 141.812C152.234 140.332 152.705 138.718 152.856 137.059C152.881 136.817 152.894 136.57 152.898 136.318C152.903 136.067 152.898 135.812 152.898 135.552C152.891 135.021 152.794 134.496 152.613 133.998C152.442 133.468 152.151 132.985 151.761 132.588C151.557 132.393 151.311 132.247 151.042 132.162C150.761 132.092 150.466 132.101 150.19 132.188C149.91 132.306 149.656 132.48 149.446 132.7C149.236 132.919 149.073 133.18 148.968 133.465C148.72 134.062 148.588 134.701 148.58 135.348C148.589 136.734 149.076 138.074 149.96 139.142C150.42 139.717 150.989 140.196 151.634 140.551C152.279 140.906 152.988 141.131 153.72 141.211C155.283 141.391 156.862 141.043 158.204 140.223C159.617 139.362 160.689 138.04 161.241 136.48C161.831 134.859 161.936 133.101 161.543 131.421C161.458 130.996 161.315 130.585 161.117 130.199C161.024 130.011 160.891 129.846 160.727 129.716C160.563 129.585 160.372 129.493 160.168 129.445C159.746 129.369 159.311 129.454 158.95 129.684C158.579 129.913 158.291 130.255 158.128 130.659C157.798 131.499 157.73 132.419 157.932 133.299C158.119 134.198 158.511 135.042 159.077 135.765C160.047 137.053 161.473 137.922 163.063 138.192C163.834 138.297 164.619 138.24 165.366 138.026C166.114 137.811 166.809 137.443 167.407 136.944C168.601 135.996 169.417 134.652 169.706 133.154C169.774 132.792 169.803 132.424 169.792 132.056C169.798 131.694 169.744 131.334 169.63 130.991C169.529 130.658 169.332 130.361 169.063 130.139C168.93 130.04 168.774 129.977 168.609 129.954C168.445 129.932 168.277 129.952 168.122 130.012C167.81 130.142 167.556 130.381 167.407 130.685C167.259 130.988 167.214 131.332 167.279 131.664C167.435 132.326 167.795 132.922 168.31 133.367C168.795 133.82 169.367 134.171 169.991 134.398C170.615 134.626 171.279 134.726 171.942 134.692C172.57 134.659 173.184 134.497 173.746 134.215C174.308 133.934 174.806 133.539 175.208 133.056C175.987 132.161 176.414 131.012 176.409 129.824V129.854C176.339 129.693 176.217 129.561 176.062 129.478C175.908 129.396 175.73 129.368 175.557 129.399C175.21 129.418 174.884 129.57 174.646 129.824C174.536 129.951 174.458 130.102 174.421 130.266C174.384 130.429 174.388 130.6 174.433 130.761C174.514 131.092 174.695 131.39 174.953 131.613C175.196 131.828 175.483 131.989 175.793 132.085C176.104 132.18 176.432 132.208 176.754 132.166C177.371 132.085 177.969 131.898 178.521 131.613L184.1 128.773L187.647 126.98L188.571 126.516L188.886 126.384Z" fill="#455A64"/>
<path d="M150.739 21.3326C150.739 21.3965 141.733 21.4476 130.623 21.4476C119.512 21.4476 110.502 21.3965 110.502 21.3326C110.502 21.2688 119.508 21.2219 130.623 21.2219C141.737 21.2219 150.739 21.273 150.739 21.3326Z" fill="#E0E0E0"/>
<path d="M157.446 21.3326C156.521 21.4859 155.578 21.4859 154.653 21.3326C155.578 21.185 156.521 21.185 157.446 21.3326Z" fill="#E0E0E0"/>
<path d="M197.501 21.3326C197.501 21.3965 189.282 21.4476 179.152 21.4476C169.021 21.4476 160.802 21.3965 160.802 21.3326C160.802 21.2688 169.012 21.2219 179.152 21.2219C189.291 21.2219 197.501 21.273 197.501 21.3326Z" fill="#E0E0E0"/>
<path d="M150.739 32.528C150.739 32.5918 141.733 32.6387 130.623 32.6387C119.512 32.6387 110.502 32.5918 110.502 32.528C110.502 32.4641 119.508 32.4172 130.623 32.4172C141.737 32.4172 150.739 32.4683 150.739 32.528Z" fill="#E0E0E0"/>
<path d="M157.446 32.528C156.521 32.6756 155.578 32.6756 154.653 32.528C155.578 32.3803 156.521 32.3803 157.446 32.528Z" fill="#E0E0E0"/>
<path d="M197.501 32.528C197.501 32.5918 189.282 32.6387 179.152 32.6387C169.021 32.6387 160.802 32.5918 160.802 32.528C160.802 32.4641 169.012 32.4172 179.152 32.4172C189.291 32.4172 197.501 32.4683 197.501 32.528Z" fill="#E0E0E0"/>
<path d="M187.656 76.8411L177.099 101.374C177.048 101.488 177.034 101.615 177.057 101.738C177.08 101.861 177.14 101.974 177.228 102.062C177.317 102.15 177.43 102.209 177.553 102.231C177.676 102.254 177.803 102.238 177.917 102.187L186.055 98.593C186.134 98.5563 186.221 98.5369 186.309 98.5362C186.397 98.5355 186.484 98.5534 186.565 98.5888C186.645 98.6243 186.717 98.6764 186.776 98.7417C186.835 98.807 186.879 98.8841 186.906 98.9678L189.653 107.208C189.695 107.329 189.774 107.434 189.878 107.509C189.983 107.583 190.108 107.623 190.236 107.623C190.365 107.623 190.49 107.583 190.594 107.509C190.699 107.434 190.778 107.329 190.82 107.208L200.746 80.746L187.656 76.8411Z" fill="#477B72"/>
<path d="M201.415 80.9419L206.469 107.165C206.493 107.288 206.553 107.4 206.641 107.488C206.73 107.576 206.843 107.636 206.965 107.659C207.088 107.682 207.215 107.667 207.329 107.617C207.443 107.567 207.54 107.484 207.606 107.378L212.316 99.8365C212.362 99.7633 212.422 99.7004 212.494 99.6518C212.565 99.6033 212.646 99.5701 212.731 99.5545C212.816 99.5389 212.903 99.5411 212.987 99.5611C213.071 99.581 213.15 99.6183 213.219 99.6704L220.122 104.947C220.224 105.024 220.347 105.067 220.475 105.071C220.603 105.076 220.729 105.041 220.836 104.971C220.943 104.901 221.026 104.8 221.073 104.681C221.121 104.563 221.13 104.432 221.101 104.308L214.433 76.8411L201.415 80.9419Z" fill="#477B72"/>
<g opacity="0.3">
<path d="M187.656 76.8411L177.099 101.374C177.048 101.488 177.034 101.615 177.057 101.738C177.08 101.861 177.14 101.974 177.228 102.062C177.317 102.15 177.43 102.209 177.553 102.231C177.676 102.254 177.803 102.238 177.917 102.187L186.055 98.593C186.134 98.5563 186.221 98.5369 186.309 98.5362C186.397 98.5355 186.484 98.5534 186.565 98.5888C186.645 98.6243 186.717 98.6764 186.776 98.7417C186.835 98.807 186.879 98.8841 186.906 98.9678L189.653 107.208C189.695 107.329 189.774 107.434 189.878 107.509C189.983 107.583 190.108 107.623 190.236 107.623C190.365 107.623 190.49 107.583 190.594 107.509C190.699 107.434 190.778 107.329 190.82 107.208L200.746 80.746L187.656 76.8411Z" fill="#F8C657"/>
</g>
<g opacity="0.3">
<path d="M201.415 80.9419L206.469 107.165C206.493 107.288 206.553 107.4 206.641 107.488C206.73 107.576 206.843 107.636 206.965 107.659C207.088 107.682 207.215 107.667 207.329 107.617C207.443 107.567 207.54 107.484 207.606 107.378L212.316 99.8365C212.362 99.7633 212.422 99.7004 212.494 99.6518C212.565 99.6033 212.646 99.5701 212.731 99.5545C212.816 99.5389 212.903 99.5411 212.987 99.5611C213.071 99.581 213.15 99.6183 213.219 99.6704L220.122 104.947C220.224 105.024 220.347 105.067 220.475 105.071C220.603 105.076 220.729 105.041 220.836 104.971C220.943 104.901 221.026 104.8 221.073 104.681C221.121 104.563 221.13 104.432 221.101 104.308L214.433 76.8411L201.415 80.9419Z" fill="#FFB000"/>
</g>
<path d="M201.926 33.8566L205.392 31.3101L208.117 34.6359L212.107 33.0347L213.917 36.9354L218.184 36.3733L218.964 40.6019L223.235 41.1172L222.941 45.4097L226.948 46.9683L225.598 51.0521L229.09 53.5645L226.769 57.1842L229.529 60.4802L226.373 63.41L228.23 67.2894L224.448 69.342L225.279 73.5621L221.105 74.6096L220.858 78.9021L216.557 78.8808L215.25 82.9774L211.09 81.8873L208.803 85.5282L205.047 83.4373L201.926 86.3969L198.808 83.4373L195.052 85.5282L192.766 81.8873L188.605 82.9774L187.298 78.8808L182.997 78.9021L182.75 74.6096L178.577 73.5621L179.407 69.342L175.626 67.2894L177.478 63.41L174.327 60.4802L177.086 57.1842L174.765 53.5645L178.257 51.0521L176.903 46.9683L180.915 45.4097L180.621 41.1172L184.892 40.6019L185.671 36.3733L189.938 36.9354L191.748 33.0347L195.738 34.6359L198.459 31.3101L201.926 33.8566Z" fill="#477B72"/>
<path d="M215.702 72.6298C223.31 65.0215 223.31 52.686 215.702 45.0777C208.093 37.4694 195.758 37.4694 188.15 45.0777C180.541 52.686 180.541 65.0215 188.15 72.6298C195.758 80.2381 208.093 80.2381 215.702 72.6298Z" fill="#F8C657"/>
<path d="M206.176 54.2372L211.401 55.0038C211.594 55.0318 211.776 55.1136 211.926 55.2398C212.075 55.366 212.187 55.5316 212.247 55.7178C212.307 55.9039 212.314 56.1033 212.267 56.2932C212.22 56.4831 212.12 56.656 211.98 56.7923L208.194 60.4758C208.072 60.5942 207.98 60.7406 207.928 60.9024C207.875 61.0643 207.863 61.2365 207.892 61.4042L208.782 66.6207C208.814 66.8133 208.793 67.0112 208.719 67.1921C208.645 67.373 208.522 67.5296 208.364 67.6444C208.206 67.7591 208.019 67.8273 207.824 67.8413C207.629 67.8553 207.434 67.8146 207.261 67.7236L202.577 65.258C202.427 65.1782 202.26 65.1365 202.09 65.1365C201.92 65.1365 201.752 65.1782 201.602 65.258L196.918 67.7109C196.745 67.801 196.55 67.8409 196.355 67.8262C196.161 67.8115 195.974 67.7427 195.816 67.6276C195.659 67.5125 195.536 67.3556 195.463 67.1747C195.39 66.9938 195.369 66.796 195.402 66.6037L196.3 61.3999C196.329 61.2326 196.317 61.0608 196.265 60.8991C196.213 60.7374 196.123 60.5908 196.002 60.4716L192.221 56.7795C192.08 56.643 191.981 56.4697 191.934 56.2795C191.887 56.0893 191.894 55.8897 191.955 55.7034C192.016 55.5171 192.127 55.3516 192.278 55.2256C192.428 55.0997 192.61 55.0184 192.804 54.991L198.033 54.2372C198.201 54.214 198.361 54.1498 198.499 54.0503C198.636 53.9508 198.747 53.819 198.821 53.6666L201.168 48.9313C201.254 48.7562 201.388 48.6088 201.554 48.5058C201.72 48.4027 201.911 48.3481 202.107 48.3481C202.302 48.3481 202.493 48.4027 202.659 48.5058C202.825 48.6088 202.959 48.7562 203.046 48.9313L205.375 53.6751C205.452 53.8271 205.566 53.9578 205.705 54.0558C205.845 54.1538 206.006 54.2161 206.176 54.2372Z" fill="#477B72"/>
<path d="M277.615 74.3286C277.615 74.3286 272.539 95.1225 249.811 90.3573C249.811 90.3573 256.399 69.2994 277.615 74.3286Z" fill="#455A64"/>
<path d="M266.645 105.82C266.645 105.82 256.212 121.376 238.965 110.619C238.965 110.619 250.718 95.3013 266.645 105.82Z" fill="#455A64"/>
<path d="M250.012 129.552C250.012 129.552 234.792 142.493 220.203 126.452C220.228 126.452 236.721 114.136 250.012 129.552Z" fill="#455A64"/>
<path d="M233.893 79.2385C233.893 79.2385 250.774 87.3508 242.581 105.943C242.581 105.943 225.764 96.4894 233.893 79.2385Z" fill="#455A64"/>
<path d="M230.231 101.655C230.231 101.655 238.65 113.021 226.101 122.785C226.101 122.785 218.218 110.525 230.231 101.655Z" fill="#455A64"/>
<path d="M269.277 50.0132C269.277 50.0132 271.214 66.868 253.009 69.5678C253.018 69.5678 252.119 52.0998 269.277 50.0132Z" fill="#455A64"/>
<path d="M243.168 32.9795C243.168 32.9795 257.89 39.1286 251.498 56.4008C251.498 56.3667 236.742 48.9997 243.168 32.9795Z" fill="#455A64"/>
<path d="M234.281 57.5847C234.281 57.5847 253.776 59.8076 252.06 81.0273C252.06 81.0273 232.152 77.4587 234.281 57.5847Z" fill="#455A64"/>
<path d="M206.537 131.651C206.537 131.651 206.618 131.621 206.784 131.575L207.513 131.383C208.156 131.213 209.105 130.987 210.306 130.595C213.699 129.545 216.98 128.161 220.1 126.464C224.733 123.933 229.008 120.799 232.816 117.143C235.068 114.992 237.167 112.687 239.097 110.244L240.562 108.277L241.299 107.285C241.537 106.944 241.754 106.59 241.989 106.241L243.364 104.112L244.642 101.889C244.85 101.514 245.067 101.144 245.272 100.773C245.476 100.403 245.651 100.007 245.838 99.6279C246.213 98.8657 246.592 98.1162 246.954 97.3582C247.316 96.6002 247.601 95.8252 247.925 95.0672C248.082 94.6882 248.253 94.3134 248.398 93.9344L248.823 92.7847L249.637 90.5192C249.862 89.7569 250.063 88.9989 250.305 88.2537C250.416 87.879 250.527 87.5085 250.633 87.138C250.74 86.7675 250.816 86.3928 250.91 86.0223L251.425 83.825C252.538 78.6643 253.025 73.3885 252.877 68.1114C252.761 64.5556 252.365 61.0145 251.694 57.5207C251.425 56.2858 251.191 55.3362 251.051 54.6889C250.978 54.3695 250.923 54.1268 250.884 53.9522C250.846 53.7776 250.838 53.7009 250.838 53.7009C250.838 53.7009 250.863 53.7818 250.906 53.9479L251.093 54.6804C251.251 55.3234 251.519 56.273 251.779 57.5037C253.555 66.2073 253.503 75.1852 251.625 83.8675C251.455 84.5915 251.283 85.3268 251.11 86.0734C251.021 86.4439 250.948 86.8229 250.838 87.1934C250.727 87.5638 250.62 87.9386 250.51 88.3133L249.841 90.5831L249.028 92.8571C248.892 93.2403 248.755 93.6236 248.602 94.0111C248.449 94.3986 248.287 94.7691 248.125 95.1523L247.154 97.4519C246.792 98.2099 246.409 98.9636 246.038 99.7259L245.468 100.876C245.259 101.25 245.042 101.621 244.833 101.996L243.556 104.227L242.172 106.356C241.938 106.705 241.72 107.059 241.478 107.4L240.737 108.4L239.268 110.372C237.336 112.825 235.235 115.139 232.978 117.296C229.154 120.957 224.857 124.089 220.203 126.609C217.061 128.297 213.757 129.663 210.34 130.685C209.135 131.064 208.177 131.276 207.53 131.43L206.797 131.604L206.537 131.651Z" fill="#455A64"/>
<path d="M228.404 110.819C228.427 110.977 228.427 111.138 228.404 111.296C228.379 111.598 228.332 112.041 228.268 112.574C228.136 113.659 227.91 115.154 227.591 116.794C227.272 118.433 226.914 119.907 226.629 120.958C226.484 121.486 226.365 121.912 226.271 122.206C226.234 122.361 226.178 122.512 226.105 122.653C226.115 122.495 226.143 122.338 226.186 122.185C226.267 121.84 226.365 121.418 226.475 120.907C226.722 119.847 227.054 118.374 227.374 116.738C227.693 115.103 227.94 113.617 228.111 112.539C228.191 112.037 228.264 111.611 228.319 111.262C228.333 111.112 228.361 110.963 228.404 110.819Z" fill="#455A64"/>
<path d="M232.552 127.699C232.392 127.706 232.232 127.692 232.075 127.657L230.798 127.465C229.707 127.303 228.196 127.09 226.539 126.895C224.883 126.699 223.35 126.558 222.251 126.469L220.948 126.354C220.787 126.348 220.627 126.325 220.471 126.286C220.631 126.265 220.792 126.265 220.952 126.286C221.263 126.286 221.71 126.286 222.259 126.328C223.367 126.384 224.887 126.498 226.565 126.694C228.243 126.89 229.75 127.12 230.823 127.333C231.368 127.435 231.803 127.525 232.101 127.593C232.255 127.609 232.407 127.645 232.552 127.699Z" fill="#455A64"/>
<path d="M253.069 107.076C252.887 107.14 252.698 107.185 252.507 107.212L250.965 107.515C249.662 107.774 247.87 108.149 245.902 108.622C243.935 109.094 242.168 109.588 240.89 109.955L239.378 110.38C239.197 110.444 239.01 110.49 238.82 110.517C238.988 110.422 239.167 110.348 239.353 110.295C239.702 110.167 240.204 109.997 240.847 109.793C242.125 109.388 243.875 108.873 245.847 108.396C247.818 107.919 249.624 107.566 250.957 107.348C251.613 107.238 252.145 107.161 252.516 107.114C252.698 107.083 252.884 107.07 253.069 107.076Z" fill="#455A64"/>
<path d="M238.169 91.1282C238.301 91.2881 238.416 91.4607 238.514 91.6434C238.731 91.9841 239.016 92.4951 239.344 93.1211C241.052 96.4541 242.096 100.087 242.419 103.818C242.478 104.529 242.504 105.096 242.504 105.522C242.524 105.728 242.524 105.937 242.504 106.143C242.462 105.94 242.439 105.733 242.436 105.526C242.415 105.13 242.363 104.555 242.283 103.844C241.88 100.146 240.845 96.5455 239.225 93.1978C238.914 92.5547 238.654 92.0437 238.463 91.6903C238.347 91.5128 238.249 91.3246 238.169 91.1282Z" fill="#455A64"/>
<path d="M260.781 81.4316C260.643 81.5513 260.493 81.6568 260.334 81.7468L259.082 82.5601C258.034 83.2585 256.612 84.2635 255.122 85.4644C253.631 86.6652 252.354 87.8576 251.455 88.7391L250.399 89.7952C250.279 89.932 250.145 90.0562 249.999 90.1656C250.097 90.013 250.209 89.8703 250.335 89.7398C250.565 89.4715 250.91 89.0925 251.344 88.6369C252.486 87.4493 253.7 86.3342 254.981 85.2983C256.26 84.2617 257.601 83.3046 258.997 82.4324C259.538 82.1002 259.976 81.8447 260.274 81.6744C260.433 81.5732 260.603 81.4917 260.781 81.4316Z" fill="#455A64"/>
<path d="M239.493 66.0376C239.552 66.0726 239.606 66.114 239.655 66.1611L240.081 66.5444C240.451 66.8808 240.979 67.396 241.614 68.005C242.891 69.257 244.595 71.0412 246.366 73.1151C248.138 75.1889 249.628 77.1606 250.663 78.617C251.178 79.3451 251.587 79.9413 251.86 80.3586L252.171 80.8441C252.239 80.9591 252.273 81.0187 252.264 81.023C252.213 80.9783 252.169 80.9267 252.132 80.8697L251.787 80.4098L250.535 78.7064C249.471 77.2756 247.98 75.3252 246.196 73.2556C244.412 71.186 242.747 69.3847 241.512 68.1072L240.021 66.621L239.621 66.1952C239.532 66.0972 239.489 66.0461 239.493 66.0376Z" fill="#455A64"/>
<path d="M262.974 55.4895C262.847 55.6773 262.705 55.8539 262.548 56.0175L261.365 57.4143C260.372 58.5981 259.039 60.2632 257.668 62.1795C256.297 64.0958 255.156 65.8971 254.355 67.2214L253.444 68.7885C253.34 68.9877 253.219 69.1773 253.082 69.3549C253.161 69.1449 253.257 68.9413 253.367 68.746C253.563 68.3627 253.865 67.8134 254.249 67.1405C255.015 65.7949 256.144 63.9765 257.519 62.0517C258.895 60.1269 260.253 58.4704 261.275 57.3121C261.786 56.7287 262.212 56.2688 262.514 55.9579C262.654 55.7891 262.808 55.6324 262.974 55.4895Z" fill="#455A64"/>
<path d="M245.353 39.4863C245.469 39.6864 245.571 39.8941 245.659 40.1081C245.843 40.5083 246.085 41.096 246.409 41.8114C247.026 43.2678 247.844 45.3033 248.683 47.5731C249.522 49.8428 250.224 51.9166 250.706 53.4284C250.948 54.1821 251.132 54.7953 251.259 55.2212C251.334 55.4392 251.391 55.6627 251.43 55.8897C251.325 55.6838 251.239 55.4685 251.174 55.2467L250.557 53.4752C250.041 51.9805 249.313 49.9152 248.474 47.6497C247.635 45.3842 246.843 43.3445 246.264 41.871C245.983 41.1599 245.753 40.5935 245.579 40.1208C245.482 39.9175 245.407 39.7049 245.353 39.4863Z" fill="#455A64"/>
<path d="M22.6377 69.6997C22.6377 69.6997 27.4369 89.348 48.9121 84.8469C48.8993 84.8469 42.6735 64.9473 22.6377 69.6997Z" fill="#455A64"/>
<path d="M33.0027 99.4575C33.0027 99.4575 42.8609 114.158 59.1494 103.993C59.1494 103.993 48.0434 89.5183 33.0027 99.4575Z" fill="#455A64"/>
<path d="M48.7076 121.882C48.7076 121.882 63.0926 134.117 76.8685 118.957C76.8685 118.957 61.27 107.314 48.7076 121.882Z" fill="#455A64"/>
<path d="M63.9443 74.3416C63.9443 74.3416 47.9923 82.0067 55.7341 99.5727C55.7298 99.5727 71.6392 90.6428 63.9443 74.3416Z" fill="#455A64"/>
<path d="M67.4021 95.5227C67.4021 95.5227 59.4474 106.262 71.3028 115.49C71.3028 115.49 78.755 103.908 67.4021 95.5227Z" fill="#455A64"/>
<path d="M30.5072 46.7214C30.5072 46.7214 28.6761 62.6479 45.8801 65.1987C45.8801 65.1987 46.7147 48.6931 30.5072 46.7214Z" fill="#455A64"/>
<path d="M55.1805 30.6033C55.1805 30.6033 41.264 36.416 47.3067 52.747C47.3067 52.7257 61.2488 45.7547 55.1805 30.6033Z" fill="#455A64"/>
<path d="M63.5781 53.8755C63.5781 53.8755 45.1519 55.9791 46.7744 76.0193C46.7744 76.0278 65.5923 72.6594 63.5781 53.8755Z" fill="#455A64"/>
<path d="M93.8341 125.229L93.5829 125.183L92.8547 125.021C92.2159 124.872 91.2705 124.672 90.0739 124.318C86.6836 123.374 83.3822 122.136 80.2072 120.618C78.0087 119.579 75.8755 118.407 73.8195 117.109C71.4531 115.63 69.1948 113.985 67.0614 112.186C64.6967 110.204 62.4885 108.043 60.4566 105.722L58.9066 103.852C58.4041 103.209 57.9271 102.541 57.4289 101.881C57.1819 101.548 56.9349 101.212 56.6837 100.88L55.9981 99.8365C55.5467 99.1296 55.0655 98.4312 54.6269 97.7073C53.7752 96.2254 52.9235 94.786 52.2209 93.2786C51.4543 91.8094 50.8496 90.2977 50.2194 88.8157C45.7754 77.7674 44.6594 65.6607 47.0086 53.9862C47.2641 52.7682 47.5238 51.8356 47.6729 51.1969C47.7538 50.886 47.8134 50.6433 47.856 50.473C47.8986 50.3026 47.9284 50.2302 47.9284 50.2302C47.9284 50.2302 47.9284 50.3154 47.8773 50.4815C47.8262 50.6476 47.7878 50.9073 47.7155 51.2054C47.5792 51.8484 47.3322 52.7853 47.0895 54.0032C46.4397 57.4539 46.0708 60.9515 45.9865 64.4619C45.8641 72.7652 47.3716 81.0119 50.4238 88.7348C51.0498 90.204 51.6545 91.7157 52.421 93.1806C53.1151 94.6796 53.9838 96.1147 54.8142 97.5923C55.2401 98.3163 55.7298 99.0104 56.1812 99.7215L56.8668 100.769L57.6077 101.766C58.1017 102.426 58.5787 103.094 59.0769 103.733L60.6227 105.594C64.4846 110.006 68.9623 113.838 73.9175 116.972C78.9417 120.149 84.3895 122.599 90.0995 124.25C91.2876 124.616 92.2287 124.829 92.8674 124.991L93.5871 125.178L93.8341 125.229Z" fill="#455A64"/>
<path d="M69.1268 104.18C69.1735 104.319 69.2063 104.461 69.2247 104.606C69.2801 104.938 69.344 105.338 69.4206 105.811C69.5824 106.829 69.8209 108.234 70.119 109.78C70.4171 111.326 70.7322 112.714 70.9707 113.719C71.0771 114.183 71.1666 114.571 71.2432 114.911C71.2853 115.05 71.3097 115.193 71.3156 115.337C71.2467 115.202 71.1939 115.059 71.1581 114.911C71.0729 114.639 70.9537 114.234 70.8174 113.736C70.5448 112.74 70.2127 111.351 69.9061 109.801C69.5995 108.251 69.3951 106.82 69.2716 105.811C69.2077 105.3 69.1651 104.883 69.1438 104.593C69.1219 104.457 69.1161 104.318 69.1268 104.18Z" fill="#455A64"/>
<path d="M65.2218 120.132C65.3591 120.076 65.5018 120.035 65.6476 120.009C65.9287 119.945 66.346 119.86 66.857 119.762C67.8833 119.57 69.3099 119.336 70.894 119.157C72.4781 118.978 73.9175 118.863 74.9608 118.816C75.4846 118.791 75.9062 118.774 76.1957 118.774C76.347 118.754 76.5002 118.754 76.6514 118.774C76.5055 118.813 76.3553 118.835 76.2043 118.838L74.9736 118.948C73.9345 119.038 72.4994 119.174 70.9196 119.374C69.3397 119.574 67.9387 119.762 66.8826 119.915L65.6604 120.09C65.5167 120.123 65.3692 120.137 65.2218 120.132Z" fill="#455A64"/>
<path d="M45.8206 100.637C46.0035 100.631 46.1865 100.646 46.3656 100.684C46.7148 100.727 47.2173 100.799 47.8348 100.901C49.0782 101.106 50.7816 101.438 52.6468 101.889C54.512 102.34 56.177 102.826 57.3736 103.213C57.9698 103.405 58.451 103.571 58.7832 103.69C58.9575 103.742 59.1259 103.812 59.2857 103.899C59.1038 103.878 58.9251 103.835 58.7534 103.771L57.3268 103.345C56.1217 103.001 54.4524 102.541 52.5914 102.089C50.7305 101.638 49.0399 101.284 47.8092 101.037L46.3529 100.752C46.1723 100.73 45.9941 100.692 45.8206 100.637Z" fill="#455A64"/>
<path d="M59.9031 85.5752C59.8342 85.7586 59.7487 85.9354 59.6476 86.1032C59.4687 86.4354 59.2217 86.9209 58.9279 87.5298C58.1666 89.108 57.5398 90.7477 57.0542 92.4312C56.5736 94.1164 56.2332 95.8384 56.0364 97.5797C55.964 98.2483 55.9129 98.7933 55.8916 99.1681C55.8888 99.3643 55.8659 99.5598 55.8235 99.7515C55.7992 99.5566 55.7921 99.3599 55.8022 99.1638C55.8022 98.7848 55.8235 98.2397 55.8789 97.5669C56.0324 95.8069 56.3547 94.0657 56.8413 92.3674C57.3287 90.6713 57.9805 89.0269 58.7874 87.4574C59.0982 86.857 59.3665 86.38 59.5709 86.0607C59.6631 85.8869 59.7745 85.7241 59.9031 85.5752Z" fill="#455A64"/>
<path d="M38.5343 76.4153C38.6962 76.4747 38.8518 76.5503 38.9985 76.641C39.2923 76.7985 39.7096 77.0413 40.2206 77.3564C41.5409 78.1793 42.8094 79.0823 44.0191 80.0605C45.2273 81.0404 46.3736 82.0943 47.4514 83.216C47.8773 83.6418 48.1881 84.0038 48.4053 84.2593C48.5258 84.3902 48.6328 84.5328 48.7247 84.6851C48.5836 84.5826 48.455 84.464 48.3414 84.3317L47.3364 83.3224C46.4848 82.4708 45.2839 81.3721 43.8744 80.2266C42.4648 79.0811 41.1192 78.1399 40.1312 77.4841L38.9516 76.7091C38.8014 76.6279 38.6614 76.5293 38.5343 76.4153Z" fill="#455A64"/>
<path d="M58.6511 61.8643C58.4986 62.0566 58.3321 62.2374 58.1529 62.4051L56.7519 63.8316C55.5808 65.0368 53.9882 66.7401 52.3189 68.6948C50.6496 70.6494 49.2272 72.4933 48.218 73.8474L47.0342 75.4529C46.8984 75.6556 46.7475 75.8478 46.5828 76.0277C46.6929 75.8097 46.8196 75.6004 46.9618 75.4018C47.2173 75.0057 47.6048 74.4394 48.0902 73.7538C49.0697 72.374 50.4792 70.5131 52.1528 68.55C53.8263 66.5868 55.4275 64.9175 56.6411 63.7209C57.2458 63.129 57.7398 62.6563 58.0933 62.3412C58.2675 62.169 58.4539 62.0096 58.6511 61.8643Z" fill="#455A64"/>
<path d="M36.4606 51.8953C36.6258 52.0238 36.7796 52.1663 36.9205 52.3211C37.2058 52.6149 37.6061 53.0493 38.0873 53.5986C39.3474 55.0387 40.5328 56.5425 41.6388 58.104C42.9163 59.9224 44.0065 61.6428 44.7304 62.9118C45.0924 63.5463 45.3734 64.0658 45.5821 64.432C45.6897 64.6161 45.7796 64.81 45.8504 65.0112C45.7213 64.8418 45.606 64.6624 45.5054 64.4746L44.6154 62.9927C43.8574 61.745 42.7758 60.0459 41.4812 58.2318C40.1867 56.4177 38.9262 54.8463 37.9893 53.7264C37.5635 53.1898 37.1675 52.7469 36.8779 52.4063C36.7212 52.2511 36.5813 52.0798 36.4606 51.8953Z" fill="#455A64"/>
<path d="M53.1194 36.7737C53.0657 36.9851 52.9945 37.1916 52.9065 37.3912C52.7404 37.817 52.5233 38.3748 52.2592 39.0434C51.7142 40.4359 50.9817 42.365 50.1726 44.507C49.3635 46.649 48.6907 48.5993 48.1882 50.0131C47.9497 50.6902 47.7624 51.2523 47.6048 51.6867C47.5438 51.8957 47.4625 52.0982 47.3621 52.2914C47.3969 52.0772 47.4496 51.8664 47.5196 51.6611C47.6346 51.2353 47.8135 50.6774 48.0391 49.9577C48.4948 48.5312 49.1549 46.551 49.9512 44.4218C50.7475 42.2926 51.5183 40.3593 52.1017 38.9795C52.3955 38.2897 52.6382 37.7361 52.8128 37.3528C52.8966 37.1506 52.9993 36.9567 53.1194 36.7737Z" fill="#455A64"/>
<path d="M93.8128 56.8266C96.9172 57.2311 97.3771 60.4122 98.5269 63.0822C99.6767 65.7522 101.878 68.1284 103.573 70.5174C104.467 71.7949 105.702 72.9149 106.009 74.4139C106.345 75.9809 105.63 77.6034 105.294 79.2003C104.957 80.7972 105.196 82.7518 106.729 83.4587C106.556 83.6598 106.34 83.818 106.096 83.9207C105.852 84.0235 105.587 84.0679 105.323 84.0506C105.323 84.7873 104.612 85.4219 103.837 85.6348C103.056 85.7903 102.251 85.7816 101.474 85.6092C101.682 86.0989 101.24 86.6909 100.69 86.8868C100.133 87.0393 99.5443 87.0393 98.9868 86.8868C98.4334 86.7297 97.8537 86.6877 97.2834 86.7633C96.0059 87.0401 95.2607 88.4666 93.9832 88.6455C92.2287 88.901 90.9682 86.6568 89.235 87.0486C88.4217 87.2317 87.8808 87.9428 87.2123 88.4283C86.5437 88.9138 85.4152 88.7903 85.0831 88.0919C84.1547 89.2629 82.7196 90.3999 81.2079 90.7108C81.316 90.4549 81.3457 90.1726 81.2934 89.8997C81.2411 89.6269 81.1091 89.3756 80.9141 89.1778C80.0852 89.8547 79.0894 90.2959 78.0311 90.4553C78.3491 90.1632 78.5999 89.8056 78.7661 89.4071C78.9322 89.0086 79.0098 88.5787 78.9935 88.1472C78.6373 88.4269 78.2221 88.6217 77.7794 88.7168C77.3367 88.812 76.8781 88.8051 76.4385 88.6966C77.9971 87.8066 78.1418 85.737 77.5968 84.1827C77.0517 82.6283 75.9871 81.2358 75.7827 79.5963C75.557 77.8121 77.6521 75.5551 77.2433 73.8049C76.6131 71.1051 76.6599 69.4613 76.7706 66.9403C76.843 65.2923 77.5712 63.8274 78.2952 62.2901C79.1427 60.3859 80.5946 58.8143 82.4258 57.8188C84.0738 56.8905 86.45 56.0388 88.3365 55.9962C91.7006 55.9238 93.0676 55.8173 95.7291 57.5974" fill="#455A64"/>
<path d="M83.4479 78.8084C82.343 76.6635 81.4268 74.4265 80.7097 72.1227C79.9907 69.8082 79.859 67.351 80.3265 64.9729C80.4074 64.6194 81.1781 62.1964 81.5444 62.1836C81.8041 62.1836 81.4251 64.3852 81.5869 64.5939C83.1157 66.5612 83.8013 69.0865 83.9333 71.5734C84.0404 73.997 83.8776 76.4251 83.4479 78.8127" fill="#455A64"/>
<path d="M98.1564 99.2063C94.4388 99.6322 85.4962 95.7229 84.9979 92.0181L81.983 69.7211C80.9865 63.7593 83.6224 58.2233 89.614 57.3716L90.1719 57.3248C92.8808 57.1071 95.5723 57.9179 97.7103 59.5957C99.8482 61.2735 101.276 63.6952 101.708 66.3782C102.56 71.5522 103.411 77.2755 103.594 80.0733C103.986 85.8604 98.2757 87.2231 98.2757 87.2231C98.2757 87.2231 98.4205 88.5603 98.6291 90.2509C99.1018 94.0494 98.4971 98.2141 98.1564 99.1935V99.2063Z" fill="#FFBDA7"/>
<path d="M98.2757 87.2233C95.6028 87.4308 92.9264 86.8677 90.5637 85.6008C90.5637 85.6008 92.727 89.8039 98.4546 88.8202L98.2757 87.2233Z" fill="#EB996E"/>
<path d="M99.5532 71.4117C99.5724 71.6263 99.507 71.8399 99.3709 72.0069C99.2349 72.174 99.039 72.2813 98.825 72.306C98.7204 72.3234 98.6134 72.3196 98.5104 72.2948C98.4073 72.2699 98.3104 72.2245 98.2253 72.1613C98.1402 72.0981 98.0687 72.0183 98.0152 71.9269C97.9617 71.8354 97.9271 71.734 97.9137 71.6289C97.8945 71.4143 97.9599 71.2007 98.0959 71.0337C98.232 70.8666 98.4279 70.7593 98.6419 70.7346C98.7465 70.7165 98.8537 70.7199 98.957 70.7445C99.0603 70.7691 99.1575 70.8144 99.2427 70.8777C99.3279 70.9411 99.3994 71.0211 99.4528 71.1128C99.5061 71.2046 99.5403 71.3063 99.5532 71.4117Z" fill="#455A64"/>
<path d="M100.682 69.027C100.588 69.142 99.9279 68.7289 99.0379 68.8013C98.1479 68.8737 97.5347 69.3719 97.4282 69.2697C97.3218 69.1675 97.4666 69.0228 97.7348 68.7971C98.0971 68.4979 98.5437 68.3193 99.0124 68.2861C99.4743 68.2464 99.9368 68.3553 100.332 68.5969C100.622 68.7843 100.728 68.9717 100.682 69.027Z" fill="#455A64"/>
<path d="M91.1982 72.0633C91.2122 72.2772 91.145 72.4885 91.01 72.6551C90.875 72.8217 90.6822 72.9312 90.47 72.9618C90.3655 72.9787 90.2587 72.9744 90.1559 72.9493C90.0531 72.9242 89.9564 72.8788 89.8714 72.8157C89.7865 72.7525 89.715 72.673 89.6613 72.5818C89.6076 72.4907 89.5727 72.3896 89.5587 72.2847C89.5447 72.0708 89.6119 71.8595 89.7469 71.6929C89.8819 71.5263 90.0747 71.4168 90.2869 71.3862C90.3913 71.3699 90.4979 71.3746 90.6005 71.4C90.7031 71.4253 90.7996 71.4708 90.8844 71.5338C90.9692 71.5968 91.0406 71.6761 91.0945 71.767C91.1484 71.8579 91.1836 71.9586 91.1982 72.0633Z" fill="#455A64"/>
<path d="M91.986 69.9297C91.8923 70.0447 91.228 69.6359 90.3423 69.7083C89.4565 69.7807 88.8348 70.2789 88.7326 70.1767C88.6304 70.0745 88.7667 69.9297 89.0349 69.6998C89.3972 69.4011 89.844 69.2239 90.3125 69.193C90.7758 69.1527 91.2398 69.2617 91.6368 69.5039C91.9264 69.6912 92.0499 69.8786 91.986 69.9297Z" fill="#455A64"/>
<path d="M95.7248 76.5048C96.1808 76.3192 96.6589 76.1932 97.1471 76.1301C97.3728 76.0875 97.573 76.0236 97.607 75.8661C97.609 75.6302 97.5376 75.3995 97.4026 75.206L96.5935 73.5325C95.465 71.1477 94.6261 69.1761 94.7241 69.1335C94.822 69.0909 95.8142 70.9859 96.9427 73.3706L97.7263 75.074C97.8905 75.3366 97.9569 75.6488 97.9136 75.9555C97.8874 76.0381 97.8427 76.1136 97.7829 76.1763C97.7232 76.239 97.6499 76.2873 97.5687 76.3175C97.4447 76.3605 97.3161 76.3891 97.1854 76.4026C96.7048 76.4981 96.2141 76.5324 95.7248 76.5048Z" fill="#455A64"/>
<path d="M91.624 66.6208C91.5218 66.8551 90.6403 66.6847 89.5885 66.7486C88.5367 66.8125 87.6722 67.0424 87.5487 66.8167C87.4934 66.7103 87.6552 66.4888 88.0086 66.2759C88.4814 66.0189 89.0062 65.872 89.5438 65.8462C90.0813 65.8203 90.6178 65.9163 91.113 66.1269C91.5048 66.3015 91.6879 66.5016 91.624 66.6208Z" fill="#455A64"/>
<path d="M100.307 66.9659C100.141 67.1831 99.3999 67.0426 98.5269 67.115C97.6539 67.1874 96.9343 67.4045 96.7469 67.2086C96.6617 67.115 96.7469 66.902 97.062 66.6806C97.4847 66.4078 97.9695 66.2463 98.4713 66.2113C98.9732 66.1763 99.4757 66.2689 99.9322 66.4805C100.256 66.6593 100.379 66.8595 100.307 66.9659Z" fill="#455A64"/>
<path d="M82.8006 73.9667C82.6984 73.9326 78.7338 73.115 79.1767 77.054C79.6196 80.9931 83.4862 79.7411 83.482 79.6091C83.4777 79.4771 82.8006 73.9667 82.8006 73.9667Z" fill="#FFBDA7"/>
<path d="M82.1107 78.2677C82.1107 78.2677 82.0468 78.3231 81.9361 78.3912C81.7804 78.4774 81.5979 78.5018 81.4251 78.4593C80.9993 78.3529 80.5734 77.7311 80.4627 77.02C80.4162 76.6828 80.4453 76.3395 80.5479 76.015C80.5702 75.8879 80.6234 75.7682 80.7029 75.6665C80.7823 75.5647 80.8856 75.4841 81.0035 75.4316C81.0798 75.4022 81.1639 75.4001 81.2416 75.4257C81.3192 75.4513 81.3856 75.5031 81.4293 75.5721C81.4975 75.6786 81.4804 75.7595 81.5017 75.7638C81.523 75.768 81.5784 75.6871 81.5273 75.5295C81.4955 75.4336 81.4306 75.3521 81.3442 75.2996C81.2264 75.2292 81.0858 75.2078 80.9524 75.24C80.7945 75.2913 80.6523 75.382 80.5391 75.5034C80.4258 75.6248 80.3453 75.773 80.3051 75.9341C80.1771 76.2942 80.1377 76.6798 80.1901 77.0583C80.3051 77.8504 80.7948 78.5488 81.3825 78.651C81.4919 78.6706 81.6044 78.6651 81.7114 78.6349C81.8184 78.6046 81.9171 78.5504 82 78.4764C82.1107 78.3656 82.1235 78.272 82.1107 78.2677Z" fill="#EB996E"/>
<path d="M98.365 60.1567C98.9612 59.7309 96.7979 57.8912 95.1457 57.3717C92.646 56.5839 88.9497 56.3625 86.8375 57.2482C84.2824 58.3128 82.2767 59.8842 81.2462 62.4392C80.2698 65.0289 80.0008 67.8319 80.4669 70.56C80.5356 71.403 80.8297 72.212 81.3186 72.9021C81.9744 73.707 83.0986 74.1286 83.1966 75.3337C83.224 75.7757 83.4226 76.1896 83.7501 76.4877C84.5678 77.1648 85.3598 76.3387 85.6792 75.5679C86.3563 73.9199 86.2285 72.0632 86.105 70.2875C86.0757 69.0178 85.8368 67.7617 85.3982 66.5699C85.1256 65.9354 84.7424 65.352 84.5039 64.7047C84.3661 64.3885 84.2986 64.0462 84.306 63.7014C84.3133 63.3566 84.3954 63.0175 84.5465 62.7075C84.623 62.5842 84.7114 62.4686 84.8105 62.3626C85.3013 61.8157 85.9287 61.4092 86.6283 61.1847C87.328 60.9602 88.0748 60.9258 88.7921 61.085C91.1044 61.6003 95.0392 62.3115 95.9377 61.4385C97.2153 60.161 97.4835 59.437 97.4835 59.437L98.365 60.1567Z" fill="#455A64"/>
<path d="M93.3487 77.2669C93.2976 77.2669 93.289 77.5011 93.4083 77.8333C93.5724 78.2704 93.8705 78.6446 94.26 78.9021C94.6343 79.1513 95.0516 79.3289 95.4906 79.4259C95.8185 79.5026 96.0315 79.5111 96.0485 79.46C96.0655 79.4089 95.8867 79.2939 95.5886 79.1491C95.2104 78.9804 94.8459 78.7825 94.4984 78.5572C93.7064 78.0504 93.4721 77.2328 93.3487 77.2669Z" fill="#455A64"/>
<path d="M82.9283 74.4819C82.9624 74.5501 82.9922 74.6225 83.0263 74.7034C83.0263 74.7119 82.988 74.6225 82.9283 74.4819Z" fill="#477B72"/>
<path d="M81.5785 73.8602C81.5785 73.8602 82.2385 73.0086 82.9284 74.4649C82.1065 72.5316 76.6429 58.5512 91.6241 56.7073C91.6241 56.7073 86.2116 55.7535 82.9497 58.4448C82.9497 58.4618 76.3151 62.4264 81.5785 73.8602Z" fill="#455A64"/>
<path d="M110.225 144.456L75.4037 144.929C75.4037 144.929 65.6647 140.854 62.9904 140.743C60.3161 140.632 55.0016 140.973 52.5445 144.929C49.9895 149.017 49.6531 156.227 57.4758 161.464C65.0983 166.575 99.945 171.284 104.744 170.833L113.525 159.029C113.525 159.029 113.619 149.341 113.525 148.877C113.431 148.412 111.958 144.265 111.958 144.265L110.225 144.456Z" fill="#455A64"/>
<path d="M89.3798 160.809L71.3369 167.507L79.5599 190C81.6593 189.08 81.7189 175.871 81.7189 175.871L93.4551 172.038L89.3798 160.809Z" fill="#477B72"/>
<g opacity="0.6">
<path d="M80.1519 168.559C80.0073 168.367 79.797 168.235 79.5612 168.189C79.3254 168.142 79.0809 168.185 78.8744 168.308C78.6736 168.445 78.5343 168.655 78.4858 168.894C78.4374 169.132 78.4835 169.38 78.6146 169.585C78.7685 169.789 78.9927 169.929 79.2438 169.977C79.4948 170.025 79.7547 169.978 79.973 169.845C80.1634 169.68 80.2826 169.448 80.3056 169.197C80.3287 168.946 80.2537 168.696 80.0965 168.499" fill="white"/>
</g>
<path d="M71.3369 167.507L73.1595 166.834L80.3988 188.693C80.3988 188.693 80.3307 189.855 79.5812 190L71.3369 167.507Z" fill="#455A64"/>
<path d="M81.9659 176.194C81.8552 176.228 81.6082 175.696 81.0546 175.287C80.501 174.878 79.9389 174.755 79.9431 174.64C79.9474 174.525 80.6458 174.453 81.3016 174.964C81.9574 175.475 82.0766 176.177 81.9659 176.194Z" fill="#455A64"/>
<path d="M81.8552 178.907C81.7573 178.971 81.3953 178.566 80.7949 178.362C80.1945 178.157 79.6664 178.23 79.6281 178.119C79.5898 178.008 80.1902 177.693 80.9312 177.978C81.6721 178.264 81.9574 178.868 81.8552 178.907Z" fill="#455A64"/>
<path d="M79.5217 181.279C79.462 181.189 79.9475 180.853 80.6587 180.896C81.3698 180.938 81.7914 181.385 81.7147 181.466C81.6381 181.547 81.2037 181.347 80.6246 181.304C80.0455 181.262 79.5728 181.385 79.5217 181.279Z" fill="#455A64"/>
<path d="M84.5465 175.023C84.4273 175.023 84.3975 174.457 84.1207 173.852C83.8439 173.247 83.4777 172.834 83.5501 172.741C83.6224 172.647 84.1846 172.971 84.4912 173.69C84.7978 174.41 84.653 175.049 84.5465 175.023Z" fill="#455A64"/>
<path d="M87.0207 173.507C86.9739 173.507 86.7482 173.115 86.5949 172.379C86.5199 171.946 86.4971 171.505 86.5267 171.067C86.5448 170.807 86.5804 170.548 86.6332 170.292C86.6584 170.144 86.7058 170 86.7737 169.866C86.825 169.765 86.9087 169.684 87.0114 169.637C87.114 169.589 87.2298 169.577 87.3401 169.602C87.4364 169.629 87.5252 169.678 87.5991 169.745C87.6731 169.813 87.7302 169.896 87.7659 169.99C87.8178 170.127 87.8507 170.27 87.8639 170.416C87.9461 171.121 87.8479 171.836 87.5786 172.494C87.2847 173.192 86.9398 173.52 86.9057 173.49C86.8717 173.46 87.1016 173.064 87.306 172.396C87.4241 172.003 87.4913 171.596 87.5062 171.186C87.5121 170.946 87.4993 170.705 87.4678 170.467C87.4423 170.207 87.3699 170.003 87.2421 169.981C87.1953 169.981 87.1783 169.981 87.1229 170.049C87.0757 170.153 87.0414 170.261 87.0207 170.373C86.9675 170.609 86.9277 170.848 86.9015 171.088C86.8639 171.502 86.8639 171.918 86.9015 172.332C86.9674 172.721 87.0073 173.113 87.0207 173.507Z" fill="#455A64"/>
<path d="M86.8077 173.426C86.7779 173.397 87.093 173.035 87.7872 172.732C88.1935 172.563 88.6252 172.462 89.0647 172.434C89.3279 172.422 89.5917 172.435 89.8525 172.472C90.0233 172.479 90.1896 172.529 90.3351 172.618C90.4807 172.708 90.6005 172.834 90.6829 172.983C90.7191 173.084 90.7251 173.193 90.7001 173.296C90.6751 173.4 90.6203 173.494 90.5423 173.567C90.433 173.674 90.3081 173.765 90.1719 173.835C89.9346 173.965 89.6791 174.059 89.4139 174.112C88.9691 174.206 88.508 174.187 88.0725 174.057C87.3315 173.831 87.0334 173.422 87.0675 173.397C87.4165 173.547 87.775 173.675 88.1406 173.78C88.5358 173.855 88.9426 173.843 89.333 173.746C89.5582 173.691 89.7747 173.605 89.976 173.49C90.2017 173.367 90.3592 173.205 90.3039 173.124C90.2485 173.043 90.0143 172.89 89.7886 172.869C89.5537 172.828 89.3158 172.808 89.0775 172.809C88.6685 172.816 88.2627 172.882 87.8723 173.005C87.2165 173.213 86.846 173.482 86.8077 173.426Z" fill="#455A64"/>
<path d="M104.263 158.028L121.722 166.119L111.758 187.892C109.735 186.815 110.714 173.639 110.714 173.639L99.3147 168.908L104.263 158.028Z" fill="#477B72"/>
<g opacity="0.6">
<path d="M112.852 166.481C113.011 166.306 113.228 166.195 113.463 166.167C113.698 166.14 113.935 166.198 114.13 166.332C114.314 166.484 114.433 166.702 114.463 166.939C114.492 167.177 114.429 167.417 114.287 167.609C114.118 167.8 113.884 167.921 113.631 167.949C113.378 167.978 113.123 167.911 112.916 167.763C112.741 167.581 112.643 167.338 112.643 167.086C112.643 166.833 112.741 166.59 112.916 166.408" fill="white"/>
</g>
<path d="M121.722 166.127L119.959 165.31L111.047 186.534C111.047 186.534 111.025 187.701 111.758 187.901L121.722 166.127Z" fill="#455A64"/>
<path d="M110.442 173.933C110.553 173.976 110.842 173.465 111.426 173.081C112.009 172.698 112.58 172.655 112.584 172.523C112.588 172.391 111.898 172.285 111.204 172.741C110.51 173.196 110.335 173.933 110.442 173.933Z" fill="#455A64"/>
<path d="M110.361 176.663C110.45 176.735 110.842 176.356 111.46 176.203C112.077 176.049 112.597 176.16 112.639 176.054C112.682 175.947 112.115 175.602 111.362 175.811C110.608 176.02 110.242 176.616 110.361 176.663Z" fill="#455A64"/>
<path d="M112.49 179.213C112.558 179.124 112.094 178.736 111.387 178.741C110.68 178.745 110.221 179.141 110.289 179.226C110.357 179.311 110.808 179.145 111.392 179.15C111.975 179.154 112.422 179.311 112.49 179.213Z" fill="#455A64"/>
<path d="M107.964 172.583C108.083 172.583 108.159 172.025 108.475 171.446C108.79 170.867 109.194 170.479 109.13 170.382C109.066 170.284 108.479 170.565 108.117 171.233C107.755 171.902 107.857 172.596 107.964 172.583Z" fill="#455A64"/>
<path d="M105.617 170.88C105.664 170.901 105.919 170.513 106.111 169.79C106.222 169.364 106.281 168.926 106.286 168.486C106.286 168.226 106.271 167.966 106.239 167.707C106.227 167.553 106.191 167.403 106.132 167.26C106.088 167.156 106.011 167.069 105.912 167.014C105.814 166.958 105.699 166.937 105.587 166.953C105.489 166.973 105.397 167.015 105.318 167.077C105.239 167.138 105.175 167.217 105.132 167.307C105.069 167.442 105.026 167.585 105.004 167.733C104.953 167.991 104.925 168.253 104.923 168.516C104.922 168.96 104.989 169.401 105.123 169.824C105.212 170.224 105.418 170.589 105.715 170.871C105.775 170.837 105.553 170.445 105.404 169.747C105.317 169.346 105.281 168.935 105.298 168.525C105.311 168.284 105.342 168.045 105.391 167.809C105.438 167.554 105.528 167.354 105.655 167.341C105.707 167.341 105.724 167.341 105.766 167.422C105.807 167.527 105.833 167.637 105.843 167.75C105.879 167.991 105.902 168.234 105.911 168.478C105.922 168.893 105.895 169.307 105.83 169.717C105.734 170.1 105.663 170.488 105.617 170.88Z" fill="#455A64"/>
<path d="M105.834 170.812C105.868 170.782 105.583 170.386 104.914 170.041C104.515 169.837 104.082 169.703 103.637 169.645C103.376 169.61 103.112 169.602 102.849 169.619C102.683 169.614 102.518 169.65 102.369 169.724C102.22 169.798 102.093 169.909 101.997 170.045C101.955 170.143 101.942 170.251 101.958 170.357C101.975 170.462 102.021 170.561 102.091 170.641C102.192 170.756 102.31 170.855 102.44 170.935C102.667 171.085 102.915 171.199 103.177 171.272C103.612 171.399 104.071 171.417 104.514 171.323C105.276 171.157 105.604 170.769 105.57 170.744C105.209 170.864 104.841 170.963 104.467 171.037C104.07 171.084 103.667 171.041 103.288 170.914C103.067 170.841 102.858 170.738 102.666 170.607C102.449 170.467 102.304 170.292 102.368 170.22C102.432 170.147 102.675 170.007 102.896 169.998C103.134 169.977 103.373 169.977 103.611 169.998C104.019 170.036 104.419 170.132 104.799 170.284C105.447 170.569 105.792 170.863 105.834 170.812Z" fill="#455A64"/>
<path d="M111.958 144.269C111.958 144.269 126.994 138.652 132.53 139.38C135.626 139.806 140.464 142.148 140.834 146.117C141.205 150.086 140.234 155.388 134.872 157.973C129.511 160.557 108.164 170.139 103.092 171.6C98.0201 173.06 85.3641 176.531 85.3641 176.531L80.5734 162.861C80.5734 162.861 106.792 153.782 108.176 152.765C109.56 151.747 113.065 150.367 113.065 150.367L111.958 144.269Z" fill="#455A64"/>
<path d="M59.6859 146.134L59.7924 146.104L60.0947 146.015C60.3587 145.934 60.7505 145.819 61.2658 145.696C61.8851 145.544 62.5139 145.434 63.148 145.368C63.9894 145.291 64.8361 145.291 65.6775 145.368C66.6986 145.452 67.7078 145.645 68.6882 145.943C69.2336 146.105 69.7648 146.311 70.2766 146.56L71.9118 147.361C74.1645 148.434 76.6727 149.537 79.3513 150.593C84.7084 152.722 89.8525 153.761 93.519 154.591C95.3587 155.017 96.8491 155.332 97.8711 155.579L99.055 155.856L99.3616 155.929H99.468L99.3658 155.894L99.0592 155.809C98.7952 155.737 98.3992 155.626 97.8882 155.498C96.8661 155.239 95.3842 154.885 93.5446 154.464C89.8823 153.612 84.751 152.564 79.4109 150.427C76.7366 149.371 74.2284 148.276 71.9757 147.207L70.332 146.437C69.8117 146.187 69.2719 145.981 68.718 145.819C67.7289 145.524 66.711 145.335 65.6818 145.257C64.8319 145.179 63.9766 145.179 63.1267 145.257C62.4888 145.331 61.857 145.451 61.236 145.615C60.725 145.747 60.3332 145.87 60.0734 145.96L59.7753 146.07C59.7432 146.088 59.7132 146.11 59.6859 146.134Z" fill="#455A64"/>
<path d="M60.4738 144.15C60.4738 144.175 60.9337 144.094 61.6704 144.013C62.6278 143.912 63.5917 143.885 64.5533 143.932C65.5171 143.983 66.4753 144.11 67.4192 144.311C68.1432 144.465 68.586 144.592 68.5903 144.567C68.4959 144.516 68.3958 144.476 68.2922 144.448C68.0128 144.35 67.7285 144.268 67.4405 144.201C65.5475 143.728 63.5807 143.626 61.6491 143.903C61.2829 143.954 60.9848 144.009 60.7974 144.06C60.6865 144.078 60.5779 144.108 60.4738 144.15Z" fill="#455A64"/>
<path d="M118.286 148.246C118.286 148.272 118.712 147.948 119.44 147.501C121.321 146.336 123.432 145.591 125.628 145.317C126.479 145.214 126.999 145.202 126.994 145.172C126.871 145.159 126.747 145.159 126.624 145.172C126.287 145.17 125.95 145.186 125.615 145.219C123.387 145.434 121.245 146.189 119.376 147.42C119.023 147.659 118.742 147.846 118.559 148.016C118.459 148.083 118.368 148.16 118.286 148.246Z" fill="#455A64"/>
<path d="M110.74 168.674L110.621 168.721L110.28 168.866C109.978 168.985 109.539 169.193 108.952 169.419C107.78 169.883 106.047 170.522 103.841 171.25C99.3999 172.702 93.0123 174.55 85.3727 176.475L85.4621 176.522C84.0355 172.57 82.4812 168.205 80.8119 163.619L80.7651 163.721L86.5139 161.358L118.371 148.246C119.67 146.875 120.862 145.666 121.982 144.686C122.929 143.849 123.94 143.087 125.006 142.408C125.676 141.986 126.369 141.6 127.08 141.25L127.637 140.99L127.825 140.896L127.633 140.977L127.067 141.224C126.349 141.562 125.651 141.941 124.976 142.357C123.901 143.03 122.882 143.788 121.927 144.622C120.798 145.598 119.598 146.803 118.294 148.17C110.531 151.355 99.1316 156.031 86.4202 161.23L80.6628 163.598L80.5905 163.628L80.616 163.7C82.2768 168.286 83.8524 172.643 85.279 176.599L85.3003 176.658H85.3684C93.008 174.717 99.3871 172.847 103.824 171.374C106.043 170.628 107.772 169.981 108.934 169.5C109.518 169.27 109.956 169.053 110.255 168.925L110.591 168.768L110.74 168.674Z" fill="#455A64"/>
<path d="M73.5683 96.3447C73.5683 96.3447 69.2418 98.8402 68.3646 101.77C67.828 103.55 63.791 126.311 63.1523 130.8C62.5135 135.288 63.8592 138.614 65.7754 140.104C67.6917 141.595 73.4917 143.575 73.4917 143.575L81.6551 146.219L83.9929 140.258L76.2256 129.096L76.9751 121.576L73.5683 96.3447Z" fill="#477B72"/>
<path d="M82.0809 92.4143L84.7808 90.4213C84.7808 90.4213 88.2982 94.0197 92.3395 93.5939C96.3807 93.168 98.7739 90.0764 98.7739 90.0764L110.825 92.5335C111.634 92.6953 113.108 93.2064 114.517 95.2206C116.093 97.469 123.549 107.434 123.549 107.434H128.77C129.476 107.434 130.169 107.627 130.774 107.992C131.379 108.356 131.873 108.879 132.202 109.503C133.092 111.207 134.161 113.472 134.059 114.413C133.88 116.002 134.187 120.375 132.058 121.729C131.381 122.155 128.958 123.458 127.084 123.373C124.312 123.241 121.092 121.797 119.24 120.503C117.669 119.404 114.019 115.61 112.614 114.115V114.136L111.711 145.751L80.1263 144.865L73.5684 96.3448C73.5684 96.3448 81.7615 92.4143 82.0809 92.4143Z" fill="#477B72"/>
<path d="M112.724 100.884C112.682 100.884 112.601 104.802 112.541 109.635C112.482 114.469 112.473 118.386 112.52 118.386C112.567 118.386 112.648 114.473 112.703 109.635C112.759 104.798 112.771 100.884 112.724 100.884Z" fill="#455A64"/>
<path d="M69.7443 126.439C69.7443 126.439 70.0125 126.482 70.4895 126.571C71.1625 126.706 71.8182 126.916 72.4441 127.197C73.3733 127.613 74.2484 128.141 75.0503 128.768C76.0349 129.543 76.9536 130.397 77.7969 131.323C78.6997 132.299 79.5258 133.265 80.3009 134.121C80.9793 134.889 81.6971 135.621 82.4514 136.314C82.9615 136.776 83.5021 137.203 84.0696 137.592C84.2697 137.737 84.4358 137.83 84.5423 137.898C84.5956 137.936 84.6527 137.967 84.7126 137.992C84.6676 137.945 84.6159 137.905 84.5593 137.873C84.4571 137.792 84.2995 137.69 84.1079 137.541C83.556 137.129 83.0285 136.685 82.528 136.212C81.8935 135.62 81.1781 134.866 80.3988 134.006C79.6195 133.146 78.8104 132.175 77.9034 131.196C77.0529 130.266 76.124 129.411 75.1269 128.641C74.3126 128.012 73.4228 127.489 72.4782 127.082C71.8416 126.808 71.1737 126.613 70.4895 126.503C70.3035 126.471 70.1158 126.45 69.9274 126.439C69.8665 126.432 69.8051 126.432 69.7443 126.439Z" fill="#455A64"/>
<path d="M69.0288 124.297C69.0288 124.327 69.5058 124.395 70.2595 124.604C72.2328 125.147 74.0232 126.212 75.442 127.687C75.9871 128.249 76.2937 128.641 76.2937 128.624C76.2459 128.519 76.1843 128.422 76.1106 128.334C75.9307 128.079 75.7344 127.836 75.5229 127.606C74.1319 126.067 72.3097 124.982 70.2936 124.493C69.9912 124.415 69.6839 124.358 69.3737 124.323C69.2599 124.302 69.1444 124.294 69.0288 124.297Z" fill="#455A64"/>
<g opacity="0.3">
<path d="M127.821 118.748C126.147 119.204 124.137 116.798 122.617 115.29C121.829 114.507 121.007 113.672 120.718 112.599C120.509 111.696 120.6 110.75 120.977 109.904C121.26 109.141 121.633 108.414 122.089 107.74C121.952 109.039 121.629 111.032 122.067 112.663C122.434 114.021 123.294 115.107 124.197 116.134C125.099 117.16 126.326 118.361 127.808 118.748" fill="#FFBDA7"/>
</g>
<path d="M120.683 117.373C120.717 117.373 120.522 116.819 120.364 115.912C120.276 115.381 120.225 114.845 120.211 114.307C120.204 113.648 120.25 112.99 120.347 112.339C120.454 111.69 120.614 111.051 120.824 110.427C121.003 109.919 121.218 109.423 121.467 108.945C121.893 108.132 122.246 107.668 122.221 107.668C122.122 107.761 122.035 107.865 121.961 107.979C121.863 108.102 121.773 108.231 121.693 108.366C121.574 108.539 121.465 108.718 121.365 108.903C121.099 109.378 120.872 109.874 120.683 110.385C120.461 111.015 120.295 111.663 120.185 112.322C120.087 112.983 120.046 113.651 120.062 114.319C120.082 114.864 120.146 115.407 120.253 115.942C120.292 116.172 120.351 116.368 120.398 116.555C120.436 116.708 120.481 116.858 120.534 117.006C120.575 117.132 120.624 117.255 120.683 117.373Z" fill="#455A64"/>
<path d="M97.4581 91.3199C97.4581 91.3624 97.8073 91.5796 98.1948 91.9245C98.5823 92.2695 98.8633 92.5974 98.8633 92.5676C98.7274 92.2679 98.5309 91.9996 98.2861 91.7797C98.0413 91.5599 97.7535 91.3931 97.441 91.29L97.4581 91.3199Z" fill="#455A64"/>
<path d="M94.1791 93.2104C94.145 93.2445 94.4601 93.5852 94.7156 94.0877C94.9711 94.5902 95.0691 95.0458 95.1202 95.0416C95.1386 94.6812 95.0481 94.3235 94.8604 94.0153C94.7222 93.6829 94.4841 93.4017 94.1791 93.2104Z" fill="#455A64"/>
<path d="M88.5409 95.1908C88.6895 94.8885 88.8106 94.5736 88.9029 94.2496C89.0434 93.9426 89.1505 93.6214 89.2222 93.2915C88.8238 93.8494 88.5879 94.5068 88.5409 95.1908Z" fill="#455A64"/>
<path d="M84.917 93.4789C84.9638 93.4789 85.0873 92.9381 85.445 92.3546C85.8027 91.7712 86.2286 91.405 86.1945 91.3667C85.8158 91.5744 85.5074 91.8902 85.3088 92.2737C85.064 92.6289 84.9279 93.0477 84.917 93.4789Z" fill="#455A64"/>
<path d="M74.5137 103.716C74.4712 103.716 75.0035 108.043 75.7104 113.361C76.4172 118.68 77.0177 122.99 77.0645 122.985C77.1114 122.981 76.5748 118.659 75.8679 113.34C75.161 108.021 74.5606 103.712 74.5137 103.716Z" fill="#455A64"/>
<path d="M121.859 110.708C121.843 110.857 121.843 111.007 121.859 111.155C121.869 111.33 121.89 111.503 121.923 111.675C121.944 111.777 121.961 111.884 121.978 111.999C121.995 112.114 122.038 112.229 122.072 112.352C122.223 112.939 122.432 113.509 122.693 114.055C123.019 114.719 123.407 115.351 123.852 115.942C124.308 116.526 124.826 117.059 125.398 117.53C125.868 117.912 126.39 118.226 126.948 118.463C127.067 118.514 127.178 118.565 127.288 118.603L127.603 118.693L127.88 118.769C127.965 118.769 128.046 118.791 128.119 118.799C128.259 118.823 128.402 118.836 128.545 118.838C128.006 118.731 127.48 118.572 126.973 118.361C126.436 118.11 125.932 117.792 125.474 117.415C124.916 116.945 124.409 116.417 123.962 115.84C123.524 115.259 123.138 114.64 122.808 113.992C122.548 113.455 122.331 112.898 122.161 112.326C121.91 111.334 121.901 110.704 121.859 110.708Z" fill="#455A64"/>
<g opacity="0.3">
<path d="M75.5315 146.845C74.1901 146.198 73.8877 144.461 73.7514 142.979C73.3511 138.635 72.9494 134.293 72.5463 129.952C72.3589 127.908 72.2695 125.579 73.7089 124.118C75.0247 122.785 77.1156 122.704 78.985 122.709C90.5466 122.743 100.758 123.083 112.32 123.134L111.732 143.362L75.5315 146.845Z" fill="#FFBDA7"/>
</g>
<path d="M117.302 126.239L116.072 149.698C116.048 150.134 115.858 150.543 115.541 150.843C115.224 151.142 114.804 151.309 114.368 151.308L77.0049 151.376C76.5675 151.377 76.1467 151.209 75.8296 150.908C75.5125 150.606 75.3234 150.195 75.3015 149.758L73.875 126.694C73.8281 125.74 74.5095 124.463 75.4804 124.446H115.582C115.815 124.443 116.046 124.488 116.26 124.578C116.475 124.669 116.669 124.802 116.83 124.97C116.992 125.138 117.117 125.337 117.198 125.555C117.279 125.774 117.315 126.006 117.302 126.239Z" fill="#E0E0E0"/>
<path d="M117.302 126.239C117.304 126.21 117.304 126.182 117.302 126.154C117.31 126.066 117.31 125.977 117.302 125.89C117.258 125.592 117.136 125.312 116.948 125.077C116.76 124.842 116.514 124.661 116.233 124.552C115.945 124.447 115.637 124.404 115.331 124.425H113.061L98.5822 124.399L77.107 124.378H75.5825C75.3113 124.366 75.0427 124.435 74.8118 124.578C74.5857 124.723 74.3915 124.913 74.2411 125.136C73.9363 125.581 73.773 126.108 73.7727 126.648C73.8025 127.171 73.8366 127.699 73.8664 128.227C73.9941 130.357 74.1304 132.486 74.2624 134.687C74.535 139.078 74.816 143.63 75.1141 148.276L75.1695 149.128C75.195 149.422 75.1908 149.703 75.2419 150.009C75.3019 150.307 75.4366 150.584 75.6333 150.815C75.83 151.046 76.0821 151.223 76.3661 151.329C76.6477 151.427 76.9459 151.468 77.2433 151.449H79.7984H86.5054L99.1869 151.419L110.663 151.393H113.312H113.959C114.18 151.396 114.4 151.387 114.619 151.363C115.052 151.304 115.448 151.088 115.731 150.756C116.015 150.423 116.166 149.999 116.157 149.562C116.178 149.136 116.199 148.753 116.221 148.353C116.263 147.552 116.302 146.773 116.34 146.011C116.651 139.908 116.902 134.969 117.072 131.532C117.157 129.829 117.221 128.504 117.264 127.601C117.285 127.154 117.302 126.814 117.311 126.579C117.319 126.345 117.311 126.23 117.311 126.23L117.285 126.579C117.285 126.814 117.251 127.154 117.226 127.601C117.174 128.504 117.098 129.824 117.004 131.532C116.817 134.939 116.548 139.883 116.216 145.985C116.178 146.747 116.135 147.531 116.093 148.327C116.073 148.727 116.052 149.132 116.029 149.541C116.034 149.945 115.895 150.337 115.637 150.648C115.371 150.96 115 151.163 114.594 151.219C114.384 151.234 114.173 151.234 113.964 151.219H110.659H99.1827H86.5011H79.7941H77.2391C76.9622 151.238 76.6842 151.202 76.4214 151.112C76.1626 151.014 75.9327 150.852 75.7532 150.642C75.5738 150.431 75.4506 150.178 75.3952 149.907C75.3483 149.643 75.3483 149.336 75.327 149.055L75.2717 148.204C74.9821 143.549 74.701 139.006 74.42 134.615C74.2837 132.422 74.1474 130.263 73.9941 128.155C73.9643 127.627 73.9303 127.103 73.9005 126.579C73.8969 126.073 74.0453 125.578 74.3263 125.157C74.45 124.945 74.6279 124.769 74.8419 124.647C75.0559 124.526 75.2983 124.464 75.5442 124.467H77.0687H98.5396L113.018 124.442H115.288C115.589 124.416 115.893 124.456 116.178 124.557C116.413 124.649 116.623 124.795 116.791 124.983C117.028 125.229 117.185 125.54 117.243 125.877C117.269 125.996 117.289 126.117 117.302 126.239Z" fill="#455A64"/>
<path d="M93.0931 137.69C93.0931 138.125 93.2223 138.551 93.4642 138.913C93.7061 139.275 94.0499 139.557 94.4522 139.724C94.8545 139.89 95.2972 139.934 95.7243 139.849C96.1513 139.764 96.5436 139.554 96.8515 139.246C97.1594 138.939 97.3691 138.546 97.454 138.119C97.539 137.692 97.4954 137.249 97.3288 136.847C97.1621 136.445 96.8799 136.101 96.5179 135.859C96.1558 135.617 95.7302 135.488 95.2947 135.488C94.7112 135.489 94.1519 135.721 93.7392 136.134C93.3266 136.547 93.0943 137.106 93.0931 137.69Z" fill="white"/>
<path d="M93.0931 137.69C93.1144 137.69 93.0931 137.494 93.1953 137.162C93.3251 136.691 93.6083 136.277 94.0002 135.986C94.3165 135.749 94.6927 135.605 95.0865 135.569C95.4803 135.534 95.8762 135.608 96.2299 135.785C96.5836 135.962 96.881 136.234 97.0889 136.57C97.2968 136.907 97.4069 137.294 97.4069 137.69C97.407 138.002 97.3385 138.31 97.2062 138.593C97.0739 138.876 96.881 139.126 96.6413 139.326C96.4016 139.526 96.1209 139.67 95.819 139.75C95.5171 139.829 95.2015 139.841 94.8944 139.785C94.567 139.727 94.2579 139.592 93.9917 139.393C93.5998 139.102 93.3165 138.688 93.1868 138.218C93.0974 137.886 93.1059 137.69 93.0846 137.69C93.0781 137.736 93.0781 137.784 93.0846 137.83C93.0855 137.966 93.1012 138.102 93.1314 138.235C93.2436 138.731 93.5252 139.172 93.9278 139.483C94.2061 139.698 94.5316 139.844 94.8774 139.908C95.2757 139.986 95.6875 139.955 96.0698 139.819C96.4958 139.669 96.8659 139.393 97.1301 139.027C97.402 138.66 97.5568 138.219 97.5739 137.763C97.5911 137.307 97.47 136.856 97.2264 136.47C96.9829 136.083 96.6282 135.78 96.209 135.598C95.7899 135.417 95.3257 135.367 94.8774 135.454C94.5315 135.519 94.206 135.665 93.9278 135.88C93.5249 136.192 93.2434 136.635 93.1314 137.132C93.101 137.265 93.0853 137.4 93.0846 137.536C93.0796 137.588 93.0825 137.639 93.0931 137.69Z" fill="#455A64"/>
<path d="M116.046 128.845C115.999 128.845 115.816 132.784 115.62 137.647C115.424 142.51 115.326 146.458 115.373 146.458C115.42 146.458 115.599 142.519 115.799 137.656C115.999 132.793 116.089 128.845 116.046 128.845Z" fill="#455A64"/>
<path d="M127.275 98.2396C127.493 98.0523 126.539 94.3687 126.539 94.3687C126.539 94.3687 129.073 90.2338 129.141 88.9009C129.209 87.5681 128.14 84.8299 128.14 84.8299L120.867 82.9604C120.867 82.9604 118.533 87.2998 118.065 88.8328C117.596 90.3658 118.878 95.5781 118.878 95.5781L120.109 98.2482C120.109 98.2482 123.813 101.174 127.275 98.2396Z" fill="#FFBDA7"/>
<path d="M129.124 89.6974C129.408 89.1735 129.664 88.6348 129.89 88.0835C130.35 86.989 130.916 85.9202 129.89 85.307C129.731 85.2018 129.55 85.1321 129.361 85.1027C129.173 85.0734 128.98 85.0849 128.796 85.1366C128.796 85.1366 128.953 84.2168 128.404 83.8591C128.245 83.7587 128.064 83.6978 127.877 83.6815C127.689 83.6652 127.501 83.694 127.327 83.7654C127.327 83.7654 127.497 82.4879 126.709 81.9215C126.412 81.726 126.066 81.6169 125.71 81.6063C125.355 81.5958 125.003 81.6843 124.695 81.8619C124.695 81.8619 125.321 76.1897 125.376 75.9001C125.572 74.7972 125.168 73.822 124.069 74.0946C123.664 74.1925 123.443 74.6183 122.97 76.4665C122.498 78.3147 121.74 81.4659 121.74 81.4659C121.74 81.4659 120.462 83.6845 119.862 84.8726C119.261 86.0607 118.065 88.8159 117.967 89.5569C117.707 91.4348 118.818 93.9217 118.818 93.9217L126.547 94.3476C126.547 94.3476 128.83 90.234 129.124 89.6974Z" fill="#FFBDA7"/>
<path d="M128.642 85.3792C128.423 85.6481 128.224 85.9327 128.046 86.2308L127.433 87.1634C127.305 87.3462 127.194 87.54 127.101 87.7426C126.992 87.972 126.961 88.2305 127.011 88.4793C127.034 88.6097 127.09 88.7318 127.176 88.8329C127.261 88.934 127.372 89.0104 127.497 89.0542C127.731 89.1122 127.978 89.0818 128.191 88.969C128.372 88.8779 128.544 88.771 128.706 88.6496C128.86 88.5389 129 88.4367 129.132 88.3345C129.383 88.1386 129.579 87.9725 129.707 87.8533C129.835 87.7341 129.907 87.6617 129.899 87.6531C129.89 87.6446 129.579 87.8788 129.047 88.2451C128.755 88.4654 128.446 88.662 128.123 88.8327C127.943 88.9239 127.736 88.948 127.539 88.9009C127.441 88.8661 127.354 88.8054 127.287 88.7252C127.221 88.645 127.177 88.5483 127.16 88.4452C127.119 88.2295 127.146 88.0063 127.237 87.8064C127.326 87.6104 127.431 87.4223 127.552 87.2443L128.131 86.2947C128.327 86.0045 128.498 85.6982 128.642 85.3792Z" fill="#EB996E"/>
<path d="M122.285 86.0563C122.354 85.6496 122.327 85.2322 122.204 84.8384C122.134 84.4335 121.969 84.051 121.722 83.7227C121.68 83.7439 121.897 84.2379 122.046 84.8767C122.195 85.5154 122.255 86.0563 122.285 86.0563Z" fill="#EB996E"/>
<path d="M119.24 87.7128C119.952 87.0213 120.85 86.5523 121.825 86.3629C122.796 86.177 123.789 86.1396 124.772 86.2522C125.555 86.3203 126.475 86.5247 126.811 87.2274C127.148 87.93 126.739 88.8881 126.041 89.3012C125.307 89.6664 124.478 89.793 123.669 89.6632C122.867 89.5308 122.051 89.4979 121.241 89.5652" fill="#FFBDA7"/>
<path d="M121.241 89.5654C121.241 89.5654 121.458 89.5654 121.85 89.5654C122.405 89.5894 122.958 89.642 123.507 89.723C123.892 89.7719 124.281 89.7875 124.669 89.7698C125.122 89.7565 125.567 89.6446 125.972 89.4419C126.428 89.2061 126.774 88.8032 126.939 88.3177C127.028 88.059 127.047 87.7813 126.994 87.5128C126.93 87.2374 126.781 86.9889 126.569 86.8017C126.141 86.467 125.624 86.2656 125.082 86.2225C124.595 86.1664 124.104 86.1366 123.613 86.1331C122.779 86.1175 121.948 86.2443 121.156 86.5078C120.622 86.6876 120.122 86.9569 119.678 87.3042C119.561 87.3988 119.449 87.4997 119.342 87.6065C119.27 87.6832 119.236 87.7258 119.24 87.73C119.244 87.7343 119.402 87.581 119.717 87.351C120.167 87.0305 120.664 86.7819 121.19 86.6143C121.975 86.3751 122.793 86.263 123.613 86.2822C124.097 86.2906 124.58 86.3233 125.061 86.3801C125.569 86.4208 126.055 86.6087 126.458 86.9209C126.646 87.0873 126.778 87.3073 126.837 87.5512C126.884 87.7913 126.866 88.0397 126.786 88.2708C126.635 88.718 126.318 89.09 125.9 89.3099C125.515 89.5066 125.093 89.6184 124.661 89.6378C124.28 89.6563 123.899 89.6464 123.52 89.608C122.966 89.5348 122.408 89.4992 121.85 89.5015C121.699 89.5069 121.548 89.5211 121.399 89.5441C121.292 89.5441 121.241 89.5569 121.241 89.5654Z" fill="#EB996E"/>
<path d="M128.587 85.4688C127.774 86.7038 127.054 88.0622 126.368 89.3738C126.205 89.7737 125.938 90.1223 125.593 90.383C125.3 90.5619 124.571 90.234 124.248 90.1233L126.479 85.043" fill="#FFBDA7"/>
<path d="M126.479 85.043C126.403 85.1634 126.337 85.2902 126.283 85.422L125.789 86.4866C125.363 87.3894 124.806 88.6584 124.175 90.0892L124.137 90.1701L124.222 90.1999C124.477 90.302 124.737 90.3901 125.001 90.4639C125.113 90.492 125.227 90.5091 125.342 90.515C125.404 90.5182 125.466 90.511 125.525 90.4937C125.586 90.4792 125.643 90.4516 125.691 90.4128C125.871 90.283 126.025 90.1196 126.143 89.9316C126.373 89.5697 126.534 89.2077 126.718 88.8755C127.067 88.1985 127.386 87.598 127.667 87.0913C127.948 86.5845 128.178 86.1842 128.344 85.9074C128.435 85.7715 128.516 85.6292 128.587 85.4816C128.474 85.6134 128.374 85.7561 128.289 85.9074C128.11 86.1757 127.863 86.5675 127.569 87.0657C127.275 87.564 126.943 88.1644 126.586 88.8372C126.398 89.1694 126.228 89.5399 126.011 89.8763C125.898 90.0448 125.753 90.1895 125.585 90.3021C125.499 90.347 125.404 90.3725 125.307 90.3769C125.21 90.3813 125.113 90.3645 125.023 90.3277C124.763 90.2545 124.507 90.1678 124.256 90.0679L124.303 90.1786C124.933 88.7393 125.483 87.466 125.87 86.5505L126.317 85.4646C126.384 85.3292 126.438 85.1881 126.479 85.043Z" fill="#EB996E"/>
<path d="M127.084 83.5312C126.366 85.3311 125.647 87.131 124.929 88.9309C124.797 89.3222 124.601 89.6891 124.35 90.0168C124.22 90.1773 124.054 90.3042 123.865 90.3865C123.676 90.4688 123.47 90.5042 123.264 90.4894C122.989 90.4174 122.745 90.2555 122.573 90.0295C122.4 89.8035 122.307 89.5262 122.31 89.2417C122.327 88.6732 122.464 88.1146 122.71 87.6022C123.357 85.9617 123.874 84.2731 124.256 82.5518" fill="#FFBDA7"/>
<path d="M124.256 82.5518C124.231 82.603 124.212 82.6574 124.201 82.7136L124.073 83.1905C123.962 83.6164 123.801 84.204 123.575 84.9365C123.349 85.6689 123.051 86.5334 122.681 87.4915C122.454 87.9814 122.302 88.5024 122.229 89.0373C122.209 89.3309 122.266 89.6246 122.395 89.889C122.522 90.1754 122.754 90.4024 123.043 90.5235C123.189 90.5766 123.346 90.5976 123.502 90.5851C123.658 90.5726 123.809 90.5269 123.945 90.4511C124.205 90.3095 124.424 90.1026 124.58 89.8507C124.839 89.3821 125.057 88.892 125.231 88.3858C125.602 87.4447 125.934 86.5973 126.215 85.8733L126.867 84.17C126.935 83.9826 126.99 83.8293 127.033 83.7058C127.056 83.6526 127.073 83.5969 127.084 83.5397C127.049 83.5864 127.022 83.6381 127.003 83.693C126.952 83.8165 126.884 83.9656 126.807 84.1487L126.117 85.818C125.828 86.5376 125.483 87.3808 125.104 88.3177C124.928 88.813 124.711 89.293 124.456 89.7527C124.314 89.9794 124.116 90.1656 123.881 90.2936C123.765 90.3597 123.637 90.4 123.504 90.4118C123.371 90.4235 123.237 90.4064 123.111 90.3617C122.861 90.2531 122.661 90.0559 122.549 89.8081C122.43 89.5662 122.379 89.2972 122.4 89.0288C122.463 88.5102 122.607 88.0046 122.825 87.5298C123.192 86.5802 123.473 85.7072 123.677 84.9748C123.881 84.2423 124.039 83.6291 124.133 83.2118C124.175 82.9989 124.209 82.8371 124.231 82.7264C124.247 82.6696 124.256 82.6109 124.256 82.5518Z" fill="#EB996E"/>
<path d="M132.036 111.441C131.841 110.725 126.926 96.1914 126.926 96.1914L118.801 95.2205L122.123 107.74C122.123 107.74 121.608 110.921 122.123 112.803C122.638 114.686 126.807 119.809 128.936 118.578C131.066 117.347 132.228 112.156 132.036 111.441Z" fill="#FFBDA7"/>
<path d="M122.106 93.9345C122.263 93.9539 122.423 93.9334 122.57 93.8749C122.935 93.7612 123.271 93.5682 123.552 93.3099C123.834 93.0515 124.056 92.7341 124.201 92.3802C124.27 92.2386 124.304 92.0822 124.299 91.9246C124.096 92.3991 123.807 92.8321 123.447 93.2021C123.05 93.5282 122.595 93.7767 122.106 93.9345Z" fill="#EB996E"/>
</svg>
