<svg width="266" height="138" viewBox="0 0 266 138" fill="none" xmlns="http://www.w3.org/2000/svg">
<path d="M52.2598 56.3756H79.2196V63.8644H61.8632V77.2562H77.3695L76.136 84.745H61.8632V103.511H79.2196V111H52.2598V56.3756ZM92.2838 111C90.1106 111 88.4366 110.765 87.2619 110.295C86.1459 109.825 85.353 108.856 84.8831 107.388C84.4719 105.919 84.2663 103.717 84.2663 100.78V78.8421C84.2663 76.6101 84.5894 74.8187 85.2355 73.4677C85.9403 72.1168 87.0269 71.1477 88.4953 70.5603C89.9637 69.9142 91.8726 69.5912 94.2221 69.5912H103.032V55.6708H112.371V111H92.2838ZM103.032 103.511V77.08H96.9533C95.6611 77.08 94.7801 77.3443 94.3102 77.8729C93.8403 78.3428 93.6054 79.2532 93.6054 80.6042V99.5465C93.6054 101.309 93.8403 102.425 94.3102 102.894C94.7801 103.306 95.6317 103.511 96.8652 103.511H103.032ZM128.801 111C126.041 111 123.956 110.589 122.546 109.767C121.136 108.886 120.197 107.799 119.727 106.507C119.257 105.215 119.022 103.922 119.022 102.63V69.5912H128.361V98.5774C128.361 100.281 128.713 101.544 129.418 102.366C130.182 103.129 131.386 103.511 133.03 103.511H137.788V69.5912H147.127V111H128.801ZM161.125 111L150.2 56.3756H159.804L165.883 91.6171L165.971 93.4673H166.059V91.6171L171.61 58.8425H178.834L184.12 91.6171L184.209 93.4673H184.297L184.385 91.6171L189.935 56.3756H199.891L189.142 111H180.068L175.486 81.0447L175.398 79.2826H175.31L175.222 81.0447L170.2 111H161.125ZM208.85 111C206.501 111 204.827 110.648 203.828 109.943C202.83 109.179 202.184 107.975 201.89 106.33C201.655 104.627 201.537 102.366 201.537 99.5465V79.4588C201.537 77.1681 201.831 75.3179 202.418 73.9083C203.006 72.4399 204.034 71.3532 205.502 70.6484C206.971 69.9436 209.026 69.5912 211.669 69.5912H229.643V111H220.304V77.08H214.136C213.138 77.08 212.404 77.2268 211.934 77.5205C211.464 77.8142 211.17 78.2841 211.053 78.9302C210.935 79.5175 210.876 80.3398 210.876 81.3971V98.9298C210.876 100.281 210.965 101.279 211.141 101.925C211.317 102.571 211.611 103.012 212.022 103.247C212.492 103.423 213.138 103.511 213.96 103.511H218.541L217.572 111H208.85ZM231.8 125.978L233.298 120.163H237.438C239.2 120.163 240.61 119.693 241.667 118.753C242.783 117.813 243.664 116.051 244.311 113.467L245.103 110.031L233.033 69.5912H242.02L248.892 96.1985L248.98 98.4011L249.068 96.1985L256.028 69.5912H265.191L251.359 115.934C250.302 119.517 248.951 122.072 247.306 123.599C245.661 125.185 243.253 125.978 240.082 125.978H231.8Z" fill="#F7BA34"/>
<path d="M186.5 111H196V69.5H186.5V111Z" fill="#F7BA34"/>
<path d="M21.6853 41.578L46.6578 29.0365L74.5943 29.7223L49.6218 42.2638L21.6853 41.578Z" stroke="#477B72" stroke-width="2.95751" stroke-linecap="round" stroke-linejoin="round"/>
<path d="M34.479 42.8784L37.4342 56.0668C37.4342 56.0668 44.9457 58.5919 52.882 56.8135C60.8184 55.0352 66.5341 49.5462 66.5341 49.5462L63.5789 36.3578" stroke="#477B72" stroke-width="2.95751" stroke-linecap="round" stroke-linejoin="round"/>
<path d="M25.9498 42.0115L32.4704 71.1114" stroke="#477B72" stroke-width="2.95751" stroke-linecap="round" stroke-linejoin="round"/>
<path d="M35.8459 67.5769L27.9095 69.3552L29.6879 77.2916L37.6242 75.5132L35.8459 67.5769Z" stroke="#477B72" stroke-width="2.95751" stroke-linecap="round" stroke-linejoin="round"/>
</svg>
