<svg width="21" height="21" viewBox="0 0 21 21" fill="none" xmlns="http://www.w3.org/2000/svg">
<path d="M11.25 18.25V20.25H9.25V18.25H1.25C0.69772 18.25 0.25 17.8023 0.25 17.25V1.25C0.25 0.69772 0.69772 0.25 1.25 0.25H7.25C8.4447 0.25 9.5171 0.77375 10.25 1.60418C10.9829 0.77375 12.0553 0.25 13.25 0.25H19.25C19.8023 0.25 20.25 0.69772 20.25 1.25V17.25C20.25 17.8023 19.8023 18.25 19.25 18.25H11.25ZM18.25 16.25V2.25H13.25C12.1454 2.25 11.25 3.14543 11.25 4.25V16.25H18.25ZM9.25 16.25V4.25C9.25 3.14543 8.3546 2.25 7.25 2.25H2.25V16.25H9.25Z" fill="#F6C354" stroke="#F6C354" stroke-width="0.5"/>
</svg>
