<svg width="40" height="40" viewBox="0 0 40 40" fill="none" xmlns="http://www.w3.org/2000/svg">
<path d="M20 40C8.9543 40 0 31.0456 0 20C0 8.9543 8.9543 0 20 0C31.0456 0 40 8.9543 40 20C40 31.0456 31.0456 40 20 40ZM20 36C28.8366 36 36 28.8366 36 20C36 11.1634 28.8366 4 20 4C11.1634 4 4 11.1634 4 20C4 28.8366 11.1634 36 20 36ZM17.2438 12.8292L27.0016 19.3344C27.3692 19.5794 27.4686 20.0762 27.2234 20.4438C27.1648 20.5316 27.0894 20.607 27.0016 20.6656L17.2438 27.1708C16.8762 27.416 16.3794 27.3166 16.1344 26.949C16.0468 26.8176 16 26.6632 16 26.5052V13.4948C16 13.053 16.3582 12.6948 16.8 12.6948C16.958 12.6948 17.1124 12.7416 17.2438 12.8292Z" fill="#EFEFEF"/>
</svg>
