<svg width="20" height="20" viewBox="0 0 20 20" fill="none" xmlns="http://www.w3.org/2000/svg">
<path d="M8.86102 0C13.7523 0 17.722 3.96973 17.722 8.86102C17.722 13.7523 13.7523 17.722 8.86102 17.722C3.96973 17.722 0 13.7523 0 8.86102C0 3.96973 3.96973 0 8.86102 0ZM8.86102 15.7529C12.6688 15.7529 15.7529 12.6688 15.7529 8.86102C15.7529 5.05324 12.6688 1.96911 8.86102 1.96911C5.05324 1.96911 1.96911 5.05324 1.96911 8.86102C1.96911 12.6688 5.05324 15.7529 8.86102 15.7529ZM17.2153 15.8229L20 18.6076L18.6076 20L15.8229 17.2153L17.2153 15.8229Z" fill="black"/>
</svg>
